<?xml version="1.0" encoding="utf-8" standalone="no"?>
<!DOCTYPE svg PUBLIC "-//W3C//DTD SVG 1.1//EN"
  "http://www.w3.org/Graphics/SVG/1.1/DTD/svg11.dtd">
<svg xmlns:xlink="http://www.w3.org/1999/xlink" width="432pt" height="720pt" viewBox="0 0 432 720" xmlns="http://www.w3.org/2000/svg" version="1.1">
 <metadata>
  <rdf:RDF xmlns:dc="http://purl.org/dc/elements/1.1/" xmlns:cc="http://creativecommons.org/ns#" xmlns:rdf="http://www.w3.org/1999/02/22-rdf-syntax-ns#">
   <cc:Work>
    <dc:type rdf:resource="http://purl.org/dc/dcmitype/StillImage"/>
    <dc:date>2024-01-18T16:45:08.061984</dc:date>
    <dc:format>image/svg+xml</dc:format>
    <dc:creator>
     <cc:Agent>
      <dc:title>Matplotlib v3.7.1, https://matplotlib.org/</dc:title>
     </cc:Agent>
    </dc:creator>
   </cc:Work>
  </rdf:RDF>
 </metadata>
 <defs>
  <style type="text/css">*{stroke-linejoin: round; stroke-linecap: butt}</style>
 </defs>
 <g id="figure_1">
  <g id="patch_1">
   <path d="M 0 720 
L 432 720 
L 432 0 
L 0 0 
L 0 720 
z
" style="fill: none"/>
  </g>
  <g id="axes_1">
   <g id="PolyCollection_1"/>
   <g id="PolyCollection_2">
    <path d="M 29.454545 101.454545 
L 29.454545 101.454545 
L 32.616333 101.454545 
L 35.778121 101.454545 
L 38.864628 101.454545 
L 42.026417 101.454545 
L 45.188205 101.454545 
L 48.274711 101.454545 
L 51.436499 101.454545 
L 54.598288 101.454545 
L 57.684795 101.454545 
L 60.846582 101.454545 
L 64.008369 101.454545 
L 67.094876 101.454545 
L 70.256666 101.454545 
L 73.343171 101.454545 
L 76.504961 101.454545 
L 79.666747 101.454545 
L 82.753255 101.454545 
L 85.915045 101.454545 
L 89.076828 101.454545 
L 92.163339 101.454545 
L 95.325123 101.454545 
L 98.486913 101.454545 
L 101.573417 101.454545 
L 104.735207 101.454545 
L 107.821712 101.454545 
L 110.983501 101.454545 
L 114.145291 101.454545 
L 117.231796 101.454545 
L 120.393586 101.454545 
L 123.555369 101.454545 
L 126.64188 101.454545 
L 129.803664 101.454545 
L 132.965454 101.454545 
L 136.051958 101.454545 
L 139.213742 101.454545 
L 142.375532 101.454545 
L 145.462042 101.454545 
L 148.623832 101.454545 
L 151.71033 101.454545 
L 154.87212 101.454545 
L 158.03391 101.454545 
L 161.120421 101.454545 
L 164.282198 101.454545 
L 167.443988 101.454545 
L 170.530499 101.454545 
L 173.692289 101.454545 
L 176.854079 101.454545 
L 179.940577 101.454545 
L 183.102367 101.454545 
L 186.188878 101.454545 
L 189.350655 101.454545 
L 192.512445 101.454545 
L 195.598956 101.454545 
L 198.760746 101.454545 
L 201.922535 101.454545 
L 205.009033 101.454545 
L 208.170823 101.454545 
L 211.332613 101.454545 
L 214.419111 101.454545 
L 217.580901 101.454545 
L 220.667412 101.454545 
L 223.829202 101.454545 
L 226.990979 101.454545 
L 230.07749 101.454545 
L 233.23928 101.454545 
L 236.40107 101.454545 
L 239.487568 101.454545 
L 242.649358 101.454545 
L 245.811135 101.454545 
L 248.897659 101.454545 
L 252.059436 101.454545 
L 255.221239 101.454545 
L 258.307737 101.454545 
L 261.469514 101.454545 
L 264.556037 101.454545 
L 267.717815 101.454545 
L 270.879592 101.454545 
L 273.966115 101.454545 
L 277.127892 101.454545 
L 280.28967 101.454545 
L 283.376193 101.454545 
L 286.53797 101.454545 
L 289.699773 101.454545 
L 292.786271 101.454545 
L 295.948048 101.454545 
L 299.034572 101.454545 
L 302.196349 101.454545 
L 305.358126 101.454545 
L 308.44465 101.454545 
L 311.606427 101.454545 
L 314.768204 101.454545 
L 317.854728 101.454545 
L 321.016505 101.454545 
L 324.178308 101.454545 
L 327.264806 101.454545 
L 330.426583 101.454545 
L 333.588386 101.454545 
L 336.674884 101.454545 
L 339.836661 101.454545 
L 342.923184 101.454545 
L 346.084961 101.454545 
L 349.246739 101.454545 
L 352.333262 101.454545 
L 355.495039 101.454545 
L 358.656842 101.454545 
L 361.74334 101.454545 
L 364.905117 101.454545 
L 368.06692 101.454545 
L 371.153418 101.454545 
L 374.315195 101.454545 
L 377.401719 101.454545 
L 380.563496 101.454545 
L 383.725273 101.454545 
L 386.811797 101.454545 
L 389.973574 101.454545 
L 393.135377 101.454545 
L 396.221875 101.454545 
L 399.383652 101.454545 
L 402.545455 101.454545 
L 402.545455 101.454545 
L 402.545455 42.545455 
L 399.383652 42.545455 
L 396.221875 42.545455 
L 393.135377 42.545455 
L 389.973574 42.545455 
L 386.811797 42.545455 
L 383.725273 42.545455 
L 380.563496 42.545455 
L 377.401719 42.545455 
L 374.315195 42.545455 
L 371.153418 42.545455 
L 368.06692 42.545455 
L 364.905117 42.545455 
L 361.74334 42.545455 
L 358.656842 42.545455 
L 355.495039 42.545455 
L 352.333262 42.545455 
L 349.246739 42.545455 
L 346.084961 42.545455 
L 342.923184 42.545455 
L 339.836661 42.545455 
L 336.674884 42.545455 
L 333.588386 42.545455 
L 330.426583 42.545455 
L 327.264806 42.545455 
L 324.178308 42.545455 
L 321.016505 42.545455 
L 317.854728 42.545455 
L 314.768204 42.545455 
L 311.606427 42.545455 
L 308.44465 42.545455 
L 305.358126 42.545455 
L 302.196349 42.545455 
L 299.034572 42.545455 
L 295.948048 42.545455 
L 292.786271 42.545455 
L 289.699773 42.545455 
L 286.53797 42.545455 
L 283.376193 42.545455 
L 280.28967 42.545455 
L 277.127892 42.545455 
L 273.966115 42.545455 
L 270.879592 42.545455 
L 267.717815 42.545455 
L 264.556037 42.545455 
L 261.469514 42.545455 
L 258.307737 42.545455 
L 255.221239 42.545455 
L 252.059436 42.545455 
L 248.897659 42.545455 
L 245.811135 42.545455 
L 242.649358 42.545455 
L 239.487568 42.545455 
L 236.40107 42.545455 
L 233.23928 42.545455 
L 230.07749 42.545455 
L 226.990979 42.545455 
L 223.829202 42.545455 
L 220.667412 42.545455 
L 217.580901 42.545455 
L 214.419111 42.545455 
L 211.332613 42.545455 
L 208.170823 42.545455 
L 205.009033 42.545455 
L 201.922535 42.545455 
L 198.760746 42.545455 
L 195.598956 42.545455 
L 192.512445 42.545455 
L 189.350655 42.545455 
L 186.188878 42.545455 
L 183.102367 42.545455 
L 179.940577 42.545455 
L 176.854079 42.545455 
L 173.692289 42.545455 
L 170.530499 42.545455 
L 167.443988 42.545455 
L 164.282198 42.545455 
L 161.120421 42.545455 
L 158.03391 42.545455 
L 154.87212 42.545455 
L 151.71033 42.545455 
L 148.623832 42.545455 
L 145.462042 42.545455 
L 142.375532 42.545455 
L 139.213742 42.545455 
L 136.051958 42.545455 
L 132.965454 42.545455 
L 129.803664 42.545455 
L 126.64188 42.545455 
L 123.555369 42.545455 
L 120.393586 42.545455 
L 117.231796 42.545455 
L 114.145291 42.545455 
L 110.983501 42.545455 
L 107.821712 42.545455 
L 104.735207 42.545455 
L 101.573417 42.545455 
L 98.486913 42.545455 
L 95.325123 42.545455 
L 92.163339 42.545455 
L 89.076828 42.545455 
L 85.915045 42.545455 
L 82.753255 42.545455 
L 79.666747 42.545455 
L 76.504961 42.545455 
L 73.343171 42.545455 
L 70.256666 42.545455 
L 67.094876 42.545455 
L 64.008369 42.545455 
L 60.846582 42.545455 
L 57.684795 42.545455 
L 54.598288 42.545455 
L 51.436499 42.545455 
L 48.274711 42.545455 
L 45.188205 42.545455 
L 42.026417 42.545455 
L 38.864628 42.545455 
L 35.778121 42.545455 
L 32.616333 42.545455 
L 29.454545 42.545455 
z
" clip-path="url(#p6c4417f35d)" style="fill: #f08080"/>
   </g>
   <g id="line2d_1">
    <path d="M 29.454545 101.454545 
L 32.616333 101.454545 
L 35.778121 101.454545 
L 38.864628 101.454545 
L 42.026417 101.454545 
L 45.188205 101.454545 
L 48.274711 101.454545 
L 51.436499 101.454545 
L 54.598288 101.454545 
L 57.684795 101.454545 
L 60.846582 101.454545 
L 64.008369 101.454545 
L 67.094876 101.454545 
L 70.256666 101.454545 
L 73.343171 101.454545 
L 76.504961 101.454545 
L 79.666747 101.454545 
L 82.753255 101.454545 
L 85.915045 101.454545 
L 89.076828 101.454545 
L 92.163339 101.454545 
L 95.325123 101.454545 
L 98.486913 101.454545 
L 101.573417 101.454545 
L 104.735207 101.454545 
L 107.821712 101.454545 
L 110.983501 101.454545 
L 114.145291 101.454545 
L 117.231796 101.454545 
L 120.393586 101.454545 
L 123.555369 101.454545 
L 126.64188 101.454545 
L 129.803664 101.454545 
L 132.965454 101.454545 
L 136.051958 101.454545 
L 139.213742 101.454545 
L 142.375532 101.454545 
L 145.462042 101.454545 
L 148.623832 101.454545 
L 151.71033 101.454545 
L 154.87212 101.454545 
L 158.03391 101.454545 
L 161.120421 101.454545 
L 164.282198 101.454545 
L 167.443988 101.454545 
L 170.530499 101.454545 
L 173.692289 101.454545 
L 176.854079 101.454545 
L 179.940577 101.454545 
L 183.102367 101.454545 
L 186.188878 101.454545 
L 189.350655 101.454545 
L 192.512445 101.454545 
L 195.598956 101.454545 
L 198.760746 101.454545 
L 201.922535 101.454545 
L 205.009033 101.454545 
L 208.170823 101.454545 
L 211.332613 101.454545 
L 214.419111 101.454545 
L 217.580901 101.454545 
L 220.667412 101.454545 
L 223.829202 101.454545 
L 226.990979 101.454545 
L 230.07749 101.454545 
L 233.23928 101.454545 
L 236.40107 101.454545 
L 239.487568 101.454545 
L 242.649358 101.454545 
L 245.811135 101.454545 
L 248.897659 101.454545 
L 252.059436 101.454545 
L 255.221239 101.454545 
L 258.307737 101.454545 
L 261.469514 101.454545 
L 264.556037 101.454545 
L 267.717815 101.454545 
L 270.879592 101.454545 
L 273.966115 101.454545 
L 277.127892 101.454545 
L 280.28967 101.454545 
L 283.376193 101.454545 
L 286.53797 101.454545 
L 289.699773 101.454545 
L 292.786271 101.454545 
L 295.948048 101.454545 
L 299.034572 101.454545 
L 302.196349 101.454545 
L 305.358126 101.454545 
L 308.44465 101.454545 
L 311.606427 101.454545 
L 314.768204 101.454545 
L 317.854728 101.454545 
L 321.016505 101.454545 
L 324.178308 101.454545 
L 327.264806 101.454545 
L 330.426583 101.454545 
L 333.588386 101.454545 
L 336.674884 101.454545 
L 339.836661 101.454545 
L 342.923184 101.454545 
L 346.084961 101.454545 
L 349.246739 101.454545 
L 352.333262 101.454545 
L 355.495039 101.454545 
L 358.656842 101.454545 
L 361.74334 101.454545 
L 364.905117 101.454545 
L 368.06692 101.454545 
L 371.153418 101.454545 
L 374.315195 101.454545 
L 377.401719 101.454545 
L 380.563496 101.454545 
L 383.725273 101.454545 
L 386.811797 101.454545 
L 389.973574 101.454545 
L 393.135377 101.454545 
L 396.221875 101.454545 
L 399.383652 101.454545 
L 402.545455 101.454545 
" clip-path="url(#p6c4417f35d)" style="fill: none; stroke: #808080; stroke-linecap: round"/>
   </g>
  </g>
  <g id="axes_2">
   <g id="PolyCollection_3"/>
   <g id="PolyCollection_4">
    <path d="M 29.454545 176.964263 
L 29.454545 176.964263 
L 32.616333 176.964263 
L 35.778121 176.964263 
L 38.864628 176.964263 
L 42.026417 176.964263 
L 45.188205 176.964263 
L 48.274711 176.964263 
L 51.436499 176.964263 
L 54.598288 176.964263 
L 57.684795 176.964263 
L 60.846582 176.964263 
L 64.008369 176.964263 
L 67.094876 176.964263 
L 70.256666 176.964263 
L 73.343171 176.964263 
L 76.504961 176.964263 
L 79.666747 176.964263 
L 82.753255 176.964263 
L 85.915045 176.964263 
L 89.076828 176.964263 
L 92.163339 176.964263 
L 95.325123 176.964263 
L 98.486913 176.964263 
L 101.573417 176.964263 
L 104.735207 176.964263 
L 107.821712 176.964263 
L 110.983501 176.964263 
L 114.145291 176.964263 
L 117.231796 176.964263 
L 120.393586 176.964263 
L 123.555369 176.964263 
L 126.64188 176.964263 
L 129.803664 176.964263 
L 132.965454 176.964263 
L 136.051958 176.964263 
L 139.213742 176.964263 
L 142.375532 176.964263 
L 145.462042 176.964263 
L 148.623832 176.964263 
L 151.71033 176.964263 
L 154.87212 176.964263 
L 158.03391 176.964263 
L 161.120421 176.964263 
L 164.282198 176.964263 
L 167.443988 176.964263 
L 170.530499 176.964263 
L 173.692289 176.964263 
L 176.854079 176.964263 
L 179.940577 176.964263 
L 183.102367 176.964263 
L 186.188878 176.964263 
L 189.350655 176.964263 
L 192.512445 176.964263 
L 195.598956 176.964263 
L 198.760746 176.964263 
L 201.922535 176.964263 
L 205.009033 176.964263 
L 208.170823 176.964263 
L 211.332613 176.964263 
L 214.419111 176.964263 
L 217.580901 176.964263 
L 220.667412 176.964263 
L 223.829202 176.964263 
L 226.990979 176.964263 
L 230.07749 176.964263 
L 233.23928 176.964263 
L 236.40107 176.964263 
L 239.487568 176.964263 
L 242.649358 176.964263 
L 245.811135 176.964263 
L 248.897659 176.964263 
L 252.059436 176.964263 
L 255.221239 176.964263 
L 258.307737 176.964263 
L 261.469514 176.964263 
L 264.556037 176.964263 
L 267.717815 176.964263 
L 270.879592 176.964263 
L 273.966115 176.964263 
L 277.127892 176.964263 
L 280.28967 176.964263 
L 283.376193 176.964263 
L 286.53797 176.964263 
L 289.699773 176.964263 
L 292.786271 176.964263 
L 295.948048 176.964263 
L 299.034572 176.964263 
L 302.196349 176.964263 
L 305.358126 176.964263 
L 308.44465 176.964263 
L 311.606427 176.964263 
L 314.768204 176.964263 
L 317.854728 176.964263 
L 321.016505 176.964263 
L 324.178308 176.964263 
L 327.264806 176.964263 
L 330.426583 176.964263 
L 333.588386 176.964263 
L 336.674884 176.964263 
L 339.836661 176.964263 
L 342.923184 176.964263 
L 346.084961 176.964263 
L 349.246739 176.964263 
L 352.333262 176.964263 
L 355.495039 176.964263 
L 358.656842 176.964263 
L 361.74334 176.964263 
L 364.905117 176.964263 
L 368.06692 176.964263 
L 371.153418 176.964263 
L 374.315195 176.964263 
L 377.401719 176.964263 
L 380.563496 176.964263 
L 383.725273 176.964263 
L 386.811797 176.964263 
L 389.973574 176.964263 
L 393.135377 176.964263 
L 396.221875 176.964263 
L 399.383652 176.964263 
L 402.545455 176.964263 
L 402.545455 176.964263 
L 402.545455 118.145455 
L 399.383652 118.145455 
L 396.221875 118.145455 
L 393.135377 118.145455 
L 389.973574 118.145455 
L 386.811797 118.145455 
L 383.725273 118.145455 
L 380.563496 118.145455 
L 377.401719 118.145455 
L 374.315195 118.145455 
L 371.153418 118.145455 
L 368.06692 118.145455 
L 364.905117 118.145455 
L 361.74334 118.145455 
L 358.656842 118.145455 
L 355.495039 118.145455 
L 352.333262 118.145455 
L 349.246739 118.145455 
L 346.084961 118.145455 
L 342.923184 118.145455 
L 339.836661 118.145455 
L 336.674884 118.145455 
L 333.588386 118.145455 
L 330.426583 118.145455 
L 327.264806 118.145455 
L 324.178308 118.145455 
L 321.016505 118.145455 
L 317.854728 118.145455 
L 314.768204 118.145455 
L 311.606427 118.145455 
L 308.44465 118.145455 
L 305.358126 118.145455 
L 302.196349 118.145455 
L 299.034572 118.145455 
L 295.948048 118.145455 
L 292.786271 118.145455 
L 289.699773 118.145455 
L 286.53797 118.145455 
L 283.376193 118.145455 
L 280.28967 118.145455 
L 277.127892 118.145455 
L 273.966115 118.145455 
L 270.879592 118.145455 
L 267.717815 118.145455 
L 264.556037 118.145455 
L 261.469514 118.145455 
L 258.307737 118.145455 
L 255.221239 118.145455 
L 252.059436 118.145455 
L 248.897659 118.145455 
L 245.811135 118.145455 
L 242.649358 118.145455 
L 239.487568 118.145455 
L 236.40107 118.145455 
L 233.23928 118.145455 
L 230.07749 118.145455 
L 226.990979 118.145455 
L 223.829202 118.145455 
L 220.667412 118.145455 
L 217.580901 118.145455 
L 214.419111 118.145455 
L 211.332613 118.145455 
L 208.170823 118.145455 
L 205.009033 118.145455 
L 201.922535 118.145455 
L 198.760746 118.145455 
L 195.598956 118.145455 
L 192.512445 118.145455 
L 189.350655 118.145455 
L 186.188878 118.145455 
L 183.102367 118.145455 
L 179.940577 118.145455 
L 176.854079 118.145455 
L 173.692289 118.145455 
L 170.530499 118.145455 
L 167.443988 118.145455 
L 164.282198 118.145455 
L 161.120421 118.145455 
L 158.03391 118.145455 
L 154.87212 118.145455 
L 151.71033 118.145455 
L 148.623832 118.145455 
L 145.462042 118.145455 
L 142.375532 118.145455 
L 139.213742 118.145455 
L 136.051958 118.145455 
L 132.965454 118.145455 
L 129.803664 118.145455 
L 126.64188 118.145455 
L 123.555369 118.145455 
L 120.393586 118.145455 
L 117.231796 118.145455 
L 114.145291 118.145455 
L 110.983501 118.145455 
L 107.821712 118.145455 
L 104.735207 118.145455 
L 101.573417 118.145455 
L 98.486913 118.145455 
L 95.325123 118.145455 
L 92.163339 118.145455 
L 89.076828 118.145455 
L 85.915045 118.145455 
L 82.753255 118.145455 
L 79.666747 118.145455 
L 76.504961 118.145455 
L 73.343171 118.145455 
L 70.256666 118.145455 
L 67.094876 118.145455 
L 64.008369 118.145455 
L 60.846582 118.145455 
L 57.684795 118.145455 
L 54.598288 118.145455 
L 51.436499 118.145455 
L 48.274711 118.145455 
L 45.188205 118.145455 
L 42.026417 118.145455 
L 38.864628 118.145455 
L 35.778121 118.145455 
L 32.616333 118.145455 
L 29.454545 118.145455 
z
" clip-path="url(#pd2b6bf49c7)" style="fill: #f08080"/>
   </g>
   <g id="line2d_2">
    <path d="M 29.454545 176.964263 
L 32.616333 176.964263 
L 35.778121 176.964263 
L 38.864628 176.964263 
L 42.026417 176.964263 
L 45.188205 176.964263 
L 48.274711 176.964263 
L 51.436499 176.964263 
L 54.598288 176.964263 
L 57.684795 176.964263 
L 60.846582 176.964263 
L 64.008369 176.964263 
L 67.094876 176.964263 
L 70.256666 176.964263 
L 73.343171 176.964263 
L 76.504961 176.964263 
L 79.666747 176.964263 
L 82.753255 176.964263 
L 85.915045 176.964263 
L 89.076828 176.964263 
L 92.163339 176.964263 
L 95.325123 176.964263 
L 98.486913 176.964263 
L 101.573417 176.964263 
L 104.735207 176.964263 
L 107.821712 176.964263 
L 110.983501 176.964263 
L 114.145291 176.964263 
L 117.231796 176.964263 
L 120.393586 176.964263 
L 123.555369 176.964263 
L 126.64188 176.964263 
L 129.803664 176.964263 
L 132.965454 176.964263 
L 136.051958 176.964263 
L 139.213742 176.964263 
L 142.375532 176.964263 
L 145.462042 176.964263 
L 148.623832 176.964263 
L 151.71033 176.964263 
L 154.87212 176.964263 
L 158.03391 176.964263 
L 161.120421 176.964263 
L 164.282198 176.964263 
L 167.443988 176.964263 
L 170.530499 176.964263 
L 173.692289 176.964263 
L 176.854079 176.964263 
L 179.940577 176.964263 
L 183.102367 176.964263 
L 186.188878 176.964263 
L 189.350655 176.964263 
L 192.512445 176.964263 
L 195.598956 176.964263 
L 198.760746 176.964263 
L 201.922535 176.964263 
L 205.009033 176.964263 
L 208.170823 176.964263 
L 211.332613 176.964263 
L 214.419111 176.964263 
L 217.580901 176.964263 
L 220.667412 176.964263 
L 223.829202 176.964263 
L 226.990979 176.964263 
L 230.07749 176.964263 
L 233.23928 176.964263 
L 236.40107 176.964263 
L 239.487568 176.964263 
L 242.649358 176.964263 
L 245.811135 176.964263 
L 248.897659 176.964263 
L 252.059436 176.964263 
L 255.221239 176.964263 
L 258.307737 176.964263 
L 261.469514 176.964263 
L 264.556037 176.964263 
L 267.717815 176.964263 
L 270.879592 176.964263 
L 273.966115 176.964263 
L 277.127892 176.964263 
L 280.28967 176.964263 
L 283.376193 176.964263 
L 286.53797 176.964263 
L 289.699773 176.964263 
L 292.786271 176.964263 
L 295.948048 176.964263 
L 299.034572 176.964263 
L 302.196349 176.964263 
L 305.358126 176.964263 
L 308.44465 176.964263 
L 311.606427 176.964263 
L 314.768204 176.964263 
L 317.854728 176.964263 
L 321.016505 176.964263 
L 324.178308 176.964263 
L 327.264806 176.964263 
L 330.426583 176.964263 
L 333.588386 176.964263 
L 336.674884 176.964263 
L 339.836661 176.964263 
L 342.923184 176.964263 
L 346.084961 176.964263 
L 349.246739 176.964263 
L 352.333262 176.964263 
L 355.495039 176.964263 
L 358.656842 176.964263 
L 361.74334 176.964263 
L 364.905117 176.964263 
L 368.06692 176.964263 
L 371.153418 176.964263 
L 374.315195 176.964263 
L 377.401719 176.964263 
L 380.563496 176.964263 
L 383.725273 176.964263 
L 386.811797 176.964263 
L 389.973574 176.964263 
L 393.135377 176.964263 
L 396.221875 176.964263 
L 399.383652 176.964263 
L 402.545455 176.964263 
" clip-path="url(#pd2b6bf49c7)" style="fill: none; stroke: #808080; stroke-linecap: round"/>
   </g>
  </g>
  <g id="axes_3">
   <g id="PolyCollection_5"/>
   <g id="PolyCollection_6">
    <path d="M 29.454545 252.615396 
L 29.454545 252.615396 
L 32.616333 252.615396 
L 35.778121 252.615396 
L 38.864628 252.615396 
L 42.026417 252.615396 
L 45.188205 252.615396 
L 48.274711 252.615396 
L 51.436499 252.615396 
L 54.598288 252.615396 
L 57.684795 252.615396 
L 60.846582 252.615396 
L 64.008369 252.615396 
L 67.094876 252.615396 
L 70.256666 252.615396 
L 73.343171 252.615396 
L 76.504961 252.615396 
L 79.666747 252.615396 
L 82.753255 252.615396 
L 85.915045 252.615396 
L 89.076828 252.615396 
L 92.163339 252.615396 
L 95.325123 252.615396 
L 98.486913 252.615396 
L 101.573417 252.615396 
L 104.735207 252.615396 
L 107.821712 252.615396 
L 110.983501 252.615396 
L 114.145291 252.615396 
L 117.231796 252.615396 
L 120.393586 252.615396 
L 123.555369 252.615396 
L 126.64188 252.615396 
L 129.803664 252.615396 
L 132.965454 252.615396 
L 136.051958 252.615396 
L 139.213742 252.615396 
L 142.375532 252.615396 
L 145.462042 252.615396 
L 148.623832 252.615396 
L 151.71033 252.615396 
L 154.87212 252.615396 
L 158.03391 252.615396 
L 161.120421 252.615396 
L 164.282198 252.615396 
L 167.443988 252.615396 
L 170.530499 252.615396 
L 173.692289 252.615396 
L 176.854079 252.615396 
L 179.940577 252.615396 
L 183.102367 252.615396 
L 186.188878 252.615396 
L 189.350655 252.615396 
L 192.512445 252.615396 
L 195.598956 252.615396 
L 198.760746 252.615396 
L 201.922535 252.615396 
L 205.009033 252.615396 
L 208.170823 252.615396 
L 211.332613 252.615396 
L 214.419111 252.615396 
L 217.580901 252.615396 
L 220.667412 252.615396 
L 223.829202 252.615396 
L 226.990979 252.615396 
L 230.07749 252.615396 
L 233.23928 252.615396 
L 236.40107 252.615396 
L 239.487568 252.615396 
L 242.649358 252.615396 
L 245.811135 252.615396 
L 248.897659 252.615396 
L 252.059436 252.615396 
L 255.221239 252.615396 
L 258.307737 252.615396 
L 261.469514 252.615396 
L 264.556037 252.615396 
L 267.717815 252.615396 
L 270.879592 252.615396 
L 273.966115 252.615396 
L 277.127892 252.615396 
L 280.28967 252.615396 
L 283.376193 252.615396 
L 286.53797 252.615396 
L 289.699773 252.615396 
L 292.786271 252.615396 
L 295.948048 252.615396 
L 299.034572 252.615396 
L 302.196349 252.615396 
L 305.358126 252.615396 
L 308.44465 252.615396 
L 311.606427 252.615396 
L 314.768204 252.615396 
L 317.854728 252.615396 
L 321.016505 252.615396 
L 324.178308 252.615396 
L 327.264806 252.615396 
L 330.426583 252.615396 
L 333.588386 252.615396 
L 336.674884 252.615396 
L 339.836661 252.615396 
L 342.923184 252.615396 
L 346.084961 252.615396 
L 349.246739 252.615396 
L 352.333262 252.615396 
L 355.495039 252.615396 
L 358.656842 252.615396 
L 361.74334 252.615396 
L 364.905117 252.615396 
L 368.06692 252.615396 
L 371.153418 252.615396 
L 374.315195 252.615396 
L 377.401719 252.615396 
L 380.563496 252.615396 
L 383.725273 252.615396 
L 386.811797 252.615396 
L 389.973574 252.615396 
L 393.135377 252.615396 
L 396.221875 252.615396 
L 399.383652 252.615396 
L 402.545455 252.615396 
L 402.545455 252.615396 
L 402.545455 193.745455 
L 399.383652 193.745455 
L 396.221875 193.745455 
L 393.135377 193.745455 
L 389.973574 193.745455 
L 386.811797 193.745455 
L 383.725273 193.745455 
L 380.563496 193.745455 
L 377.401719 193.745455 
L 374.315195 193.745455 
L 371.153418 193.745455 
L 368.06692 193.745455 
L 364.905117 193.745455 
L 361.74334 193.745455 
L 358.656842 193.745455 
L 355.495039 193.745455 
L 352.333262 193.745455 
L 349.246739 193.745455 
L 346.084961 193.745455 
L 342.923184 193.745455 
L 339.836661 193.745455 
L 336.674884 193.745455 
L 333.588386 193.745455 
L 330.426583 193.745455 
L 327.264806 193.745455 
L 324.178308 193.745455 
L 321.016505 193.745455 
L 317.854728 193.745455 
L 314.768204 193.745455 
L 311.606427 193.745455 
L 308.44465 193.745455 
L 305.358126 193.745455 
L 302.196349 193.745455 
L 299.034572 193.745455 
L 295.948048 193.745455 
L 292.786271 193.745455 
L 289.699773 193.745455 
L 286.53797 193.745455 
L 283.376193 193.745455 
L 280.28967 193.745455 
L 277.127892 193.745455 
L 273.966115 193.745455 
L 270.879592 193.745455 
L 267.717815 193.745455 
L 264.556037 193.745455 
L 261.469514 193.745455 
L 258.307737 193.745455 
L 255.221239 193.745455 
L 252.059436 193.745455 
L 248.897659 193.745455 
L 245.811135 193.745455 
L 242.649358 193.745455 
L 239.487568 193.745455 
L 236.40107 193.745455 
L 233.23928 193.745455 
L 230.07749 193.745455 
L 226.990979 193.745455 
L 223.829202 193.745455 
L 220.667412 193.745455 
L 217.580901 193.745455 
L 214.419111 193.745455 
L 211.332613 193.745455 
L 208.170823 193.745455 
L 205.009033 193.745455 
L 201.922535 193.745455 
L 198.760746 193.745455 
L 195.598956 193.745455 
L 192.512445 193.745455 
L 189.350655 193.745455 
L 186.188878 193.745455 
L 183.102367 193.745455 
L 179.940577 193.745455 
L 176.854079 193.745455 
L 173.692289 193.745455 
L 170.530499 193.745455 
L 167.443988 193.745455 
L 164.282198 193.745455 
L 161.120421 193.745455 
L 158.03391 193.745455 
L 154.87212 193.745455 
L 151.71033 193.745455 
L 148.623832 193.745455 
L 145.462042 193.745455 
L 142.375532 193.745455 
L 139.213742 193.745455 
L 136.051958 193.745455 
L 132.965454 193.745455 
L 129.803664 193.745455 
L 126.64188 193.745455 
L 123.555369 193.745455 
L 120.393586 193.745455 
L 117.231796 193.745455 
L 114.145291 193.745455 
L 110.983501 193.745455 
L 107.821712 193.745455 
L 104.735207 193.745455 
L 101.573417 193.745455 
L 98.486913 193.745455 
L 95.325123 193.745455 
L 92.163339 193.745455 
L 89.076828 193.745455 
L 85.915045 193.745455 
L 82.753255 193.745455 
L 79.666747 193.745455 
L 76.504961 193.745455 
L 73.343171 193.745455 
L 70.256666 193.745455 
L 67.094876 193.745455 
L 64.008369 193.745455 
L 60.846582 193.745455 
L 57.684795 193.745455 
L 54.598288 193.745455 
L 51.436499 193.745455 
L 48.274711 193.745455 
L 45.188205 193.745455 
L 42.026417 193.745455 
L 38.864628 193.745455 
L 35.778121 193.745455 
L 32.616333 193.745455 
L 29.454545 193.745455 
z
" clip-path="url(#p23ca4f3f69)" style="fill: #f08080"/>
   </g>
   <g id="line2d_3">
    <path d="M 29.454545 252.615396 
L 32.616333 252.615396 
L 35.778121 252.615396 
L 38.864628 252.615396 
L 42.026417 252.615396 
L 45.188205 252.615396 
L 48.274711 252.615396 
L 51.436499 252.615396 
L 54.598288 252.615396 
L 57.684795 252.615396 
L 60.846582 252.615396 
L 64.008369 252.615396 
L 67.094876 252.615396 
L 70.256666 252.615396 
L 73.343171 252.615396 
L 76.504961 252.615396 
L 79.666747 252.615396 
L 82.753255 252.615396 
L 85.915045 252.615396 
L 89.076828 252.615396 
L 92.163339 252.615396 
L 95.325123 252.615396 
L 98.486913 252.615396 
L 101.573417 252.615396 
L 104.735207 252.615396 
L 107.821712 252.615396 
L 110.983501 252.615396 
L 114.145291 252.615396 
L 117.231796 252.615396 
L 120.393586 252.615396 
L 123.555369 252.615396 
L 126.64188 252.615396 
L 129.803664 252.615396 
L 132.965454 252.615396 
L 136.051958 252.615396 
L 139.213742 252.615396 
L 142.375532 252.615396 
L 145.462042 252.615396 
L 148.623832 252.615396 
L 151.71033 252.615396 
L 154.87212 252.615396 
L 158.03391 252.615396 
L 161.120421 252.615396 
L 164.282198 252.615396 
L 167.443988 252.615396 
L 170.530499 252.615396 
L 173.692289 252.615396 
L 176.854079 252.615396 
L 179.940577 252.615396 
L 183.102367 252.615396 
L 186.188878 252.615396 
L 189.350655 252.615396 
L 192.512445 252.615396 
L 195.598956 252.615396 
L 198.760746 252.615396 
L 201.922535 252.615396 
L 205.009033 252.615396 
L 208.170823 252.615396 
L 211.332613 252.615396 
L 214.419111 252.615396 
L 217.580901 252.615396 
L 220.667412 252.615396 
L 223.829202 252.615396 
L 226.990979 252.615396 
L 230.07749 252.615396 
L 233.23928 252.615396 
L 236.40107 252.615396 
L 239.487568 252.615396 
L 242.649358 252.615396 
L 245.811135 252.615396 
L 248.897659 252.615396 
L 252.059436 252.615396 
L 255.221239 252.615396 
L 258.307737 252.615396 
L 261.469514 252.615396 
L 264.556037 252.615396 
L 267.717815 252.615396 
L 270.879592 252.615396 
L 273.966115 252.615396 
L 277.127892 252.615396 
L 280.28967 252.615396 
L 283.376193 252.615396 
L 286.53797 252.615396 
L 289.699773 252.615396 
L 292.786271 252.615396 
L 295.948048 252.615396 
L 299.034572 252.615396 
L 302.196349 252.615396 
L 305.358126 252.615396 
L 308.44465 252.615396 
L 311.606427 252.615396 
L 314.768204 252.615396 
L 317.854728 252.615396 
L 321.016505 252.615396 
L 324.178308 252.615396 
L 327.264806 252.615396 
L 330.426583 252.615396 
L 333.588386 252.615396 
L 336.674884 252.615396 
L 339.836661 252.615396 
L 342.923184 252.615396 
L 346.084961 252.615396 
L 349.246739 252.615396 
L 352.333262 252.615396 
L 355.495039 252.615396 
L 358.656842 252.615396 
L 361.74334 252.615396 
L 364.905117 252.615396 
L 368.06692 252.615396 
L 371.153418 252.615396 
L 374.315195 252.615396 
L 377.401719 252.615396 
L 380.563496 252.615396 
L 383.725273 252.615396 
L 386.811797 252.615396 
L 389.973574 252.615396 
L 393.135377 252.615396 
L 396.221875 252.615396 
L 399.383652 252.615396 
L 402.545455 252.615396 
" clip-path="url(#p23ca4f3f69)" style="fill: none; stroke: #808080; stroke-linecap: round"/>
   </g>
  </g>
  <g id="axes_4">
   <g id="PolyCollection_7"/>
   <g id="PolyCollection_8">
    <path d="M 29.454545 328.207295 
L 29.454545 328.207295 
L 32.616333 328.207295 
L 35.778121 328.207295 
L 38.864628 328.207295 
L 42.026417 328.207295 
L 45.188205 328.207295 
L 48.274711 328.207295 
L 51.436499 328.207295 
L 54.598288 328.207295 
L 57.684795 328.207295 
L 60.846582 328.207295 
L 64.008369 328.207295 
L 67.094876 328.207295 
L 70.256666 328.207295 
L 73.343171 328.207295 
L 76.504961 328.207295 
L 79.666747 328.207295 
L 82.753255 328.207295 
L 85.915045 328.207295 
L 89.076828 328.207295 
L 92.163339 328.207295 
L 95.325123 328.207295 
L 98.486913 328.207295 
L 101.573417 328.207295 
L 104.735207 328.207295 
L 107.821712 328.207295 
L 110.983501 328.207295 
L 114.145291 328.207295 
L 117.231796 328.207295 
L 120.393586 328.207295 
L 123.555369 328.207295 
L 126.64188 328.207295 
L 129.803664 328.207295 
L 132.965454 328.207295 
L 136.051958 328.207295 
L 139.213742 328.207295 
L 142.375532 328.207295 
L 145.462042 328.207295 
L 148.623832 328.207295 
L 151.71033 328.207295 
L 154.87212 328.207295 
L 158.03391 328.207295 
L 161.120421 328.207295 
L 164.282198 328.207295 
L 167.443988 328.207295 
L 170.530499 328.207295 
L 173.692289 328.207295 
L 176.854079 328.207295 
L 179.940577 328.207295 
L 183.102367 328.207295 
L 186.188878 328.207295 
L 189.350655 328.207295 
L 192.512445 328.207295 
L 195.598956 328.207295 
L 198.760746 328.207295 
L 201.922535 328.207295 
L 205.009033 328.207295 
L 208.170823 328.207295 
L 211.332613 328.207295 
L 214.419111 328.207295 
L 217.580901 328.207295 
L 220.667412 328.207295 
L 223.829202 328.207295 
L 226.990979 328.207295 
L 230.07749 328.207295 
L 233.23928 328.207295 
L 236.40107 328.207295 
L 239.487568 328.207295 
L 242.649358 328.207295 
L 245.811135 328.207295 
L 248.897659 328.207295 
L 252.059436 328.207295 
L 255.221239 328.207295 
L 258.307737 328.207295 
L 261.469514 328.207295 
L 264.556037 328.207295 
L 267.717815 328.207295 
L 270.879592 328.207295 
L 273.966115 328.207295 
L 277.127892 328.207295 
L 280.28967 328.207295 
L 283.376193 328.207295 
L 286.53797 328.207295 
L 289.699773 328.207295 
L 292.786271 328.207295 
L 295.948048 328.207295 
L 299.034572 328.207295 
L 302.196349 328.207295 
L 305.358126 328.207295 
L 308.44465 328.207295 
L 311.606427 328.207295 
L 314.768204 328.207295 
L 317.854728 328.207295 
L 321.016505 328.207295 
L 324.178308 328.207295 
L 327.264806 328.207295 
L 330.426583 328.207295 
L 333.588386 328.207295 
L 336.674884 328.207295 
L 339.836661 328.207295 
L 342.923184 328.207295 
L 346.084961 328.207295 
L 349.246739 328.207295 
L 352.333262 328.207295 
L 355.495039 328.207295 
L 358.656842 328.207295 
L 361.74334 328.207295 
L 364.905117 328.207295 
L 368.06692 328.207295 
L 371.153418 328.207295 
L 374.315195 328.207295 
L 377.401719 328.207295 
L 380.563496 328.207295 
L 383.725273 328.207295 
L 386.811797 328.207295 
L 389.973574 328.207295 
L 393.135377 328.207295 
L 396.221875 328.207295 
L 399.383652 328.207295 
L 402.545455 328.207295 
L 402.545455 328.207295 
L 402.545455 269.345455 
L 399.383652 269.345455 
L 396.221875 269.345455 
L 393.135377 269.345455 
L 389.973574 269.345455 
L 386.811797 269.345455 
L 383.725273 269.345455 
L 380.563496 269.345455 
L 377.401719 269.345455 
L 374.315195 269.345455 
L 371.153418 269.345455 
L 368.06692 269.345455 
L 364.905117 269.345455 
L 361.74334 269.345455 
L 358.656842 269.345455 
L 355.495039 269.345455 
L 352.333262 269.345455 
L 349.246739 269.345455 
L 346.084961 269.345455 
L 342.923184 269.345455 
L 339.836661 269.345455 
L 336.674884 269.345455 
L 333.588386 269.345455 
L 330.426583 269.345455 
L 327.264806 269.345455 
L 324.178308 269.345455 
L 321.016505 269.345455 
L 317.854728 269.345455 
L 314.768204 269.345455 
L 311.606427 269.345455 
L 308.44465 269.345455 
L 305.358126 269.345455 
L 302.196349 269.345455 
L 299.034572 269.345455 
L 295.948048 269.345455 
L 292.786271 269.345455 
L 289.699773 269.345455 
L 286.53797 269.345455 
L 283.376193 269.345455 
L 280.28967 269.345455 
L 277.127892 269.345455 
L 273.966115 269.345455 
L 270.879592 269.345455 
L 267.717815 269.345455 
L 264.556037 269.345455 
L 261.469514 269.345455 
L 258.307737 269.345455 
L 255.221239 269.345455 
L 252.059436 269.345455 
L 248.897659 269.345455 
L 245.811135 269.345455 
L 242.649358 269.345455 
L 239.487568 269.345455 
L 236.40107 269.345455 
L 233.23928 269.345455 
L 230.07749 269.345455 
L 226.990979 269.345455 
L 223.829202 269.345455 
L 220.667412 269.345455 
L 217.580901 269.345455 
L 214.419111 269.345455 
L 211.332613 269.345455 
L 208.170823 269.345455 
L 205.009033 269.345455 
L 201.922535 269.345455 
L 198.760746 269.345455 
L 195.598956 269.345455 
L 192.512445 269.345455 
L 189.350655 269.345455 
L 186.188878 269.345455 
L 183.102367 269.345455 
L 179.940577 269.345455 
L 176.854079 269.345455 
L 173.692289 269.345455 
L 170.530499 269.345455 
L 167.443988 269.345455 
L 164.282198 269.345455 
L 161.120421 269.345455 
L 158.03391 269.345455 
L 154.87212 269.345455 
L 151.71033 269.345455 
L 148.623832 269.345455 
L 145.462042 269.345455 
L 142.375532 269.345455 
L 139.213742 269.345455 
L 136.051958 269.345455 
L 132.965454 269.345455 
L 129.803664 269.345455 
L 126.64188 269.345455 
L 123.555369 269.345455 
L 120.393586 269.345455 
L 117.231796 269.345455 
L 114.145291 269.345455 
L 110.983501 269.345455 
L 107.821712 269.345455 
L 104.735207 269.345455 
L 101.573417 269.345455 
L 98.486913 269.345455 
L 95.325123 269.345455 
L 92.163339 269.345455 
L 89.076828 269.345455 
L 85.915045 269.345455 
L 82.753255 269.345455 
L 79.666747 269.345455 
L 76.504961 269.345455 
L 73.343171 269.345455 
L 70.256666 269.345455 
L 67.094876 269.345455 
L 64.008369 269.345455 
L 60.846582 269.345455 
L 57.684795 269.345455 
L 54.598288 269.345455 
L 51.436499 269.345455 
L 48.274711 269.345455 
L 45.188205 269.345455 
L 42.026417 269.345455 
L 38.864628 269.345455 
L 35.778121 269.345455 
L 32.616333 269.345455 
L 29.454545 269.345455 
z
" clip-path="url(#p33a0b4a6ac)" style="fill: #f08080"/>
   </g>
   <g id="line2d_4">
    <path d="M 29.454545 328.207295 
L 32.616333 328.207295 
L 35.778121 328.207295 
L 38.864628 328.207295 
L 42.026417 328.207295 
L 45.188205 328.207295 
L 48.274711 328.207295 
L 51.436499 328.207295 
L 54.598288 328.207295 
L 57.684795 328.207295 
L 60.846582 328.207295 
L 64.008369 328.207295 
L 67.094876 328.207295 
L 70.256666 328.207295 
L 73.343171 328.207295 
L 76.504961 328.207295 
L 79.666747 328.207295 
L 82.753255 328.207295 
L 85.915045 328.207295 
L 89.076828 328.207295 
L 92.163339 328.207295 
L 95.325123 328.207295 
L 98.486913 328.207295 
L 101.573417 328.207295 
L 104.735207 328.207295 
L 107.821712 328.207295 
L 110.983501 328.207295 
L 114.145291 328.207295 
L 117.231796 328.207295 
L 120.393586 328.207295 
L 123.555369 328.207295 
L 126.64188 328.207295 
L 129.803664 328.207295 
L 132.965454 328.207295 
L 136.051958 328.207295 
L 139.213742 328.207295 
L 142.375532 328.207295 
L 145.462042 328.207295 
L 148.623832 328.207295 
L 151.71033 328.207295 
L 154.87212 328.207295 
L 158.03391 328.207295 
L 161.120421 328.207295 
L 164.282198 328.207295 
L 167.443988 328.207295 
L 170.530499 328.207295 
L 173.692289 328.207295 
L 176.854079 328.207295 
L 179.940577 328.207295 
L 183.102367 328.207295 
L 186.188878 328.207295 
L 189.350655 328.207295 
L 192.512445 328.207295 
L 195.598956 328.207295 
L 198.760746 328.207295 
L 201.922535 328.207295 
L 205.009033 328.207295 
L 208.170823 328.207295 
L 211.332613 328.207295 
L 214.419111 328.207295 
L 217.580901 328.207295 
L 220.667412 328.207295 
L 223.829202 328.207295 
L 226.990979 328.207295 
L 230.07749 328.207295 
L 233.23928 328.207295 
L 236.40107 328.207295 
L 239.487568 328.207295 
L 242.649358 328.207295 
L 245.811135 328.207295 
L 248.897659 328.207295 
L 252.059436 328.207295 
L 255.221239 328.207295 
L 258.307737 328.207295 
L 261.469514 328.207295 
L 264.556037 328.207295 
L 267.717815 328.207295 
L 270.879592 328.207295 
L 273.966115 328.207295 
L 277.127892 328.207295 
L 280.28967 328.207295 
L 283.376193 328.207295 
L 286.53797 328.207295 
L 289.699773 328.207295 
L 292.786271 328.207295 
L 295.948048 328.207295 
L 299.034572 328.207295 
L 302.196349 328.207295 
L 305.358126 328.207295 
L 308.44465 328.207295 
L 311.606427 328.207295 
L 314.768204 328.207295 
L 317.854728 328.207295 
L 321.016505 328.207295 
L 324.178308 328.207295 
L 327.264806 328.207295 
L 330.426583 328.207295 
L 333.588386 328.207295 
L 336.674884 328.207295 
L 339.836661 328.207295 
L 342.923184 328.207295 
L 346.084961 328.207295 
L 349.246739 328.207295 
L 352.333262 328.207295 
L 355.495039 328.207295 
L 358.656842 328.207295 
L 361.74334 328.207295 
L 364.905117 328.207295 
L 368.06692 328.207295 
L 371.153418 328.207295 
L 374.315195 328.207295 
L 377.401719 328.207295 
L 380.563496 328.207295 
L 383.725273 328.207295 
L 386.811797 328.207295 
L 389.973574 328.207295 
L 393.135377 328.207295 
L 396.221875 328.207295 
L 399.383652 328.207295 
L 402.545455 328.207295 
" clip-path="url(#p33a0b4a6ac)" style="fill: none; stroke: #808080; stroke-linecap: round"/>
   </g>
  </g>
  <g id="axes_5">
   <g id="PolyCollection_9"/>
   <g id="PolyCollection_10">
    <path d="M 29.454545 403.705396 
L 29.454545 403.705396 
L 32.616333 403.705396 
L 35.778121 403.705396 
L 38.864628 403.705396 
L 42.026417 403.705396 
L 45.188205 403.705396 
L 48.274711 403.705396 
L 51.436499 403.705396 
L 54.598288 403.705396 
L 57.684795 403.705396 
L 60.846582 403.705396 
L 64.008369 403.705396 
L 67.094876 403.705396 
L 70.256666 403.705396 
L 73.343171 403.705396 
L 76.504961 403.705396 
L 79.666747 403.705396 
L 82.753255 403.705396 
L 85.915045 403.705396 
L 89.076828 403.705396 
L 92.163339 403.705396 
L 95.325123 403.705396 
L 98.486913 403.705396 
L 101.573417 403.705396 
L 104.735207 403.705396 
L 107.821712 403.705396 
L 110.983501 403.705396 
L 114.145291 403.705396 
L 117.231796 403.705396 
L 120.393586 403.705396 
L 123.555369 403.705396 
L 126.64188 403.705396 
L 129.803664 403.705396 
L 132.965454 403.705396 
L 136.051958 403.705396 
L 139.213742 403.705396 
L 142.375532 403.705396 
L 145.462042 403.705396 
L 148.623832 403.705396 
L 151.71033 403.705396 
L 154.87212 403.705396 
L 158.03391 403.705396 
L 161.120421 403.705396 
L 164.282198 403.705396 
L 167.443988 403.705396 
L 170.530499 403.705396 
L 173.692289 403.705396 
L 176.854079 403.705396 
L 179.940577 403.705396 
L 183.102367 403.705396 
L 186.188878 403.705396 
L 189.350655 403.705396 
L 192.512445 403.705396 
L 195.598956 403.705396 
L 198.760746 403.705396 
L 201.922535 403.705396 
L 205.009033 403.705396 
L 208.170823 403.705396 
L 211.332613 403.705396 
L 214.419111 403.705396 
L 217.580901 403.705396 
L 220.667412 403.705396 
L 223.829202 403.705396 
L 226.990979 403.705396 
L 230.07749 403.705396 
L 233.23928 403.705396 
L 236.40107 403.705396 
L 239.487568 403.705396 
L 242.649358 403.705396 
L 245.811135 403.705396 
L 248.897659 403.705396 
L 252.059436 403.705396 
L 255.221239 403.705396 
L 258.307737 403.705396 
L 261.469514 403.705396 
L 264.556037 403.705396 
L 267.717815 403.705396 
L 270.879592 403.705396 
L 273.966115 403.705396 
L 277.127892 403.705396 
L 280.28967 403.705396 
L 283.376193 403.705396 
L 286.53797 403.705396 
L 289.699773 403.705396 
L 292.786271 403.705396 
L 295.948048 403.705396 
L 299.034572 403.705396 
L 302.196349 403.705396 
L 305.358126 403.705396 
L 308.44465 403.705396 
L 311.606427 403.705396 
L 314.768204 403.705396 
L 317.854728 403.705396 
L 321.016505 403.705396 
L 324.178308 403.705396 
L 327.264806 403.705396 
L 330.426583 403.705396 
L 333.588386 403.705396 
L 336.674884 403.705396 
L 339.836661 403.705396 
L 342.923184 403.705396 
L 346.084961 403.705396 
L 349.246739 403.705396 
L 352.333262 403.705396 
L 355.495039 403.705396 
L 358.656842 403.705396 
L 361.74334 403.705396 
L 364.905117 403.705396 
L 368.06692 403.705396 
L 371.153418 403.705396 
L 374.315195 403.705396 
L 377.401719 403.705396 
L 380.563496 403.705396 
L 383.725273 403.705396 
L 386.811797 403.705396 
L 389.973574 403.705396 
L 393.135377 403.705396 
L 396.221875 403.705396 
L 399.383652 403.705396 
L 402.545455 403.705396 
L 402.545455 403.705396 
L 402.545455 344.945455 
L 399.383652 344.945455 
L 396.221875 344.945455 
L 393.135377 344.945455 
L 389.973574 344.945455 
L 386.811797 344.945455 
L 383.725273 344.945455 
L 380.563496 344.945455 
L 377.401719 344.945455 
L 374.315195 344.945455 
L 371.153418 344.945455 
L 368.06692 344.945455 
L 364.905117 344.945455 
L 361.74334 344.945455 
L 358.656842 344.945455 
L 355.495039 344.945455 
L 352.333262 344.945455 
L 349.246739 344.945455 
L 346.084961 344.945455 
L 342.923184 344.945455 
L 339.836661 344.945455 
L 336.674884 344.945455 
L 333.588386 344.945455 
L 330.426583 344.945455 
L 327.264806 344.945455 
L 324.178308 344.945455 
L 321.016505 344.945455 
L 317.854728 344.945455 
L 314.768204 344.945455 
L 311.606427 344.945455 
L 308.44465 344.945455 
L 305.358126 344.945455 
L 302.196349 344.945455 
L 299.034572 344.945455 
L 295.948048 344.945455 
L 292.786271 344.945455 
L 289.699773 344.945455 
L 286.53797 344.945455 
L 283.376193 344.945455 
L 280.28967 344.945455 
L 277.127892 344.945455 
L 273.966115 344.945455 
L 270.879592 344.945455 
L 267.717815 344.945455 
L 264.556037 344.945455 
L 261.469514 344.945455 
L 258.307737 344.945455 
L 255.221239 344.945455 
L 252.059436 344.945455 
L 248.897659 344.945455 
L 245.811135 344.945455 
L 242.649358 344.945455 
L 239.487568 344.945455 
L 236.40107 344.945455 
L 233.23928 344.945455 
L 230.07749 344.945455 
L 226.990979 344.945455 
L 223.829202 344.945455 
L 220.667412 344.945455 
L 217.580901 344.945455 
L 214.419111 344.945455 
L 211.332613 344.945455 
L 208.170823 344.945455 
L 205.009033 344.945455 
L 201.922535 344.945455 
L 198.760746 344.945455 
L 195.598956 344.945455 
L 192.512445 344.945455 
L 189.350655 344.945455 
L 186.188878 344.945455 
L 183.102367 344.945455 
L 179.940577 344.945455 
L 176.854079 344.945455 
L 173.692289 344.945455 
L 170.530499 344.945455 
L 167.443988 344.945455 
L 164.282198 344.945455 
L 161.120421 344.945455 
L 158.03391 344.945455 
L 154.87212 344.945455 
L 151.71033 344.945455 
L 148.623832 344.945455 
L 145.462042 344.945455 
L 142.375532 344.945455 
L 139.213742 344.945455 
L 136.051958 344.945455 
L 132.965454 344.945455 
L 129.803664 344.945455 
L 126.64188 344.945455 
L 123.555369 344.945455 
L 120.393586 344.945455 
L 117.231796 344.945455 
L 114.145291 344.945455 
L 110.983501 344.945455 
L 107.821712 344.945455 
L 104.735207 344.945455 
L 101.573417 344.945455 
L 98.486913 344.945455 
L 95.325123 344.945455 
L 92.163339 344.945455 
L 89.076828 344.945455 
L 85.915045 344.945455 
L 82.753255 344.945455 
L 79.666747 344.945455 
L 76.504961 344.945455 
L 73.343171 344.945455 
L 70.256666 344.945455 
L 67.094876 344.945455 
L 64.008369 344.945455 
L 60.846582 344.945455 
L 57.684795 344.945455 
L 54.598288 344.945455 
L 51.436499 344.945455 
L 48.274711 344.945455 
L 45.188205 344.945455 
L 42.026417 344.945455 
L 38.864628 344.945455 
L 35.778121 344.945455 
L 32.616333 344.945455 
L 29.454545 344.945455 
z
" clip-path="url(#pd54c3d5fa0)" style="fill: #f08080"/>
   </g>
   <g id="line2d_5">
    <path d="M 29.454545 403.705396 
L 32.616333 403.705396 
L 35.778121 403.705396 
L 38.864628 403.705396 
L 42.026417 403.705396 
L 45.188205 403.705396 
L 48.274711 403.705396 
L 51.436499 403.705396 
L 54.598288 403.705396 
L 57.684795 403.705396 
L 60.846582 403.705396 
L 64.008369 403.705396 
L 67.094876 403.705396 
L 70.256666 403.705396 
L 73.343171 403.705396 
L 76.504961 403.705396 
L 79.666747 403.705396 
L 82.753255 403.705396 
L 85.915045 403.705396 
L 89.076828 403.705396 
L 92.163339 403.705396 
L 95.325123 403.705396 
L 98.486913 403.705396 
L 101.573417 403.705396 
L 104.735207 403.705396 
L 107.821712 403.705396 
L 110.983501 403.705396 
L 114.145291 403.705396 
L 117.231796 403.705396 
L 120.393586 403.705396 
L 123.555369 403.705396 
L 126.64188 403.705396 
L 129.803664 403.705396 
L 132.965454 403.705396 
L 136.051958 403.705396 
L 139.213742 403.705396 
L 142.375532 403.705396 
L 145.462042 403.705396 
L 148.623832 403.705396 
L 151.71033 403.705396 
L 154.87212 403.705396 
L 158.03391 403.705396 
L 161.120421 403.705396 
L 164.282198 403.705396 
L 167.443988 403.705396 
L 170.530499 403.705396 
L 173.692289 403.705396 
L 176.854079 403.705396 
L 179.940577 403.705396 
L 183.102367 403.705396 
L 186.188878 403.705396 
L 189.350655 403.705396 
L 192.512445 403.705396 
L 195.598956 403.705396 
L 198.760746 403.705396 
L 201.922535 403.705396 
L 205.009033 403.705396 
L 208.170823 403.705396 
L 211.332613 403.705396 
L 214.419111 403.705396 
L 217.580901 403.705396 
L 220.667412 403.705396 
L 223.829202 403.705396 
L 226.990979 403.705396 
L 230.07749 403.705396 
L 233.23928 403.705396 
L 236.40107 403.705396 
L 239.487568 403.705396 
L 242.649358 403.705396 
L 245.811135 403.705396 
L 248.897659 403.705396 
L 252.059436 403.705396 
L 255.221239 403.705396 
L 258.307737 403.705396 
L 261.469514 403.705396 
L 264.556037 403.705396 
L 267.717815 403.705396 
L 270.879592 403.705396 
L 273.966115 403.705396 
L 277.127892 403.705396 
L 280.28967 403.705396 
L 283.376193 403.705396 
L 286.53797 403.705396 
L 289.699773 403.705396 
L 292.786271 403.705396 
L 295.948048 403.705396 
L 299.034572 403.705396 
L 302.196349 403.705396 
L 305.358126 403.705396 
L 308.44465 403.705396 
L 311.606427 403.705396 
L 314.768204 403.705396 
L 317.854728 403.705396 
L 321.016505 403.705396 
L 324.178308 403.705396 
L 327.264806 403.705396 
L 330.426583 403.705396 
L 333.588386 403.705396 
L 336.674884 403.705396 
L 339.836661 403.705396 
L 342.923184 403.705396 
L 346.084961 403.705396 
L 349.246739 403.705396 
L 352.333262 403.705396 
L 355.495039 403.705396 
L 358.656842 403.705396 
L 361.74334 403.705396 
L 364.905117 403.705396 
L 368.06692 403.705396 
L 371.153418 403.705396 
L 374.315195 403.705396 
L 377.401719 403.705396 
L 380.563496 403.705396 
L 383.725273 403.705396 
L 386.811797 403.705396 
L 389.973574 403.705396 
L 393.135377 403.705396 
L 396.221875 403.705396 
L 399.383652 403.705396 
L 402.545455 403.705396 
" clip-path="url(#pd54c3d5fa0)" style="fill: none; stroke: #808080; stroke-linecap: round"/>
   </g>
  </g>
  <g id="axes_6">
   <g id="PolyCollection_11"/>
   <g id="PolyCollection_12">
    <path d="M 29.454545 479.269025 
L 29.454545 479.269025 
L 32.616333 479.269025 
L 35.778121 479.269025 
L 38.864628 479.269025 
L 42.026417 479.269025 
L 45.188205 479.269025 
L 48.274711 479.269025 
L 51.436499 479.269025 
L 54.598288 479.269025 
L 57.684795 479.269025 
L 60.846582 479.269025 
L 64.008369 479.269025 
L 67.094876 479.269025 
L 70.256666 479.269025 
L 73.343171 479.269025 
L 76.504961 479.269025 
L 79.666747 479.269025 
L 82.753255 479.269025 
L 85.915045 479.269025 
L 89.076828 479.269025 
L 92.163339 479.269025 
L 95.325123 479.269025 
L 98.486913 479.269025 
L 101.573417 479.269025 
L 104.735207 479.269025 
L 107.821712 479.269025 
L 110.983501 479.269025 
L 114.145291 479.269025 
L 117.231796 479.269025 
L 120.393586 479.269025 
L 123.555369 479.269025 
L 126.64188 479.269025 
L 129.803664 479.269025 
L 132.965454 479.269025 
L 136.051958 479.269025 
L 139.213742 479.269025 
L 142.375532 479.269025 
L 145.462042 479.269025 
L 148.623832 479.269025 
L 151.71033 479.269025 
L 154.87212 479.269025 
L 158.03391 479.269025 
L 161.120421 479.269025 
L 164.282198 479.269025 
L 167.443988 479.269025 
L 170.530499 479.269025 
L 173.692289 479.269025 
L 176.854079 479.269025 
L 179.940577 479.269025 
L 183.102367 479.269025 
L 186.188878 479.269025 
L 189.350655 479.269025 
L 192.512445 479.269025 
L 195.598956 479.269025 
L 198.760746 479.269025 
L 201.922535 479.269025 
L 205.009033 479.269025 
L 208.170823 479.269025 
L 211.332613 479.269025 
L 214.419111 479.269025 
L 217.580901 479.269025 
L 220.667412 479.269025 
L 223.829202 479.269025 
L 226.990979 479.269025 
L 230.07749 479.269025 
L 233.23928 479.269025 
L 236.40107 479.269025 
L 239.487568 479.269025 
L 242.649358 479.269025 
L 245.811135 479.269025 
L 248.897659 479.269025 
L 252.059436 479.269025 
L 255.221239 479.269025 
L 258.307737 479.269025 
L 261.469514 479.269025 
L 264.556037 479.269025 
L 267.717815 479.269025 
L 270.879592 479.269025 
L 273.966115 479.269025 
L 277.127892 479.269025 
L 280.28967 479.269025 
L 283.376193 479.269025 
L 286.53797 479.269025 
L 289.699773 479.269025 
L 292.786271 479.269025 
L 295.948048 479.269025 
L 299.034572 479.269025 
L 302.196349 479.269025 
L 305.358126 479.269025 
L 308.44465 479.269025 
L 311.606427 479.269025 
L 314.768204 479.269025 
L 317.854728 479.269025 
L 321.016505 479.269025 
L 324.178308 479.269025 
L 327.264806 479.269025 
L 330.426583 479.269025 
L 333.588386 479.269025 
L 336.674884 479.269025 
L 339.836661 479.269025 
L 342.923184 479.269025 
L 346.084961 479.269025 
L 349.246739 479.269025 
L 352.333262 479.269025 
L 355.495039 479.269025 
L 358.656842 479.269025 
L 361.74334 479.269025 
L 364.905117 479.269025 
L 368.06692 479.269025 
L 371.153418 479.269025 
L 374.315195 479.269025 
L 377.401719 479.269025 
L 380.563496 479.269025 
L 383.725273 479.269025 
L 386.811797 479.269025 
L 389.973574 479.269025 
L 393.135377 479.269025 
L 396.221875 479.269025 
L 399.383652 479.269025 
L 402.545455 479.269025 
L 402.545455 479.269025 
L 402.545455 420.545455 
L 399.383652 420.545455 
L 396.221875 420.545455 
L 393.135377 420.545455 
L 389.973574 420.545455 
L 386.811797 420.545455 
L 383.725273 420.545455 
L 380.563496 420.545455 
L 377.401719 420.545455 
L 374.315195 420.545455 
L 371.153418 420.545455 
L 368.06692 420.545455 
L 364.905117 420.545455 
L 361.74334 420.545455 
L 358.656842 420.545455 
L 355.495039 420.545455 
L 352.333262 420.545455 
L 349.246739 420.545455 
L 346.084961 420.545455 
L 342.923184 420.545455 
L 339.836661 420.545455 
L 336.674884 420.545455 
L 333.588386 420.545455 
L 330.426583 420.545455 
L 327.264806 420.545455 
L 324.178308 420.545455 
L 321.016505 420.545455 
L 317.854728 420.545455 
L 314.768204 420.545455 
L 311.606427 420.545455 
L 308.44465 420.545455 
L 305.358126 420.545455 
L 302.196349 420.545455 
L 299.034572 420.545455 
L 295.948048 420.545455 
L 292.786271 420.545455 
L 289.699773 420.545455 
L 286.53797 420.545455 
L 283.376193 420.545455 
L 280.28967 420.545455 
L 277.127892 420.545455 
L 273.966115 420.545455 
L 270.879592 420.545455 
L 267.717815 420.545455 
L 264.556037 420.545455 
L 261.469514 420.545455 
L 258.307737 420.545455 
L 255.221239 420.545455 
L 252.059436 420.545455 
L 248.897659 420.545455 
L 245.811135 420.545455 
L 242.649358 420.545455 
L 239.487568 420.545455 
L 236.40107 420.545455 
L 233.23928 420.545455 
L 230.07749 420.545455 
L 226.990979 420.545455 
L 223.829202 420.545455 
L 220.667412 420.545455 
L 217.580901 420.545455 
L 214.419111 420.545455 
L 211.332613 420.545455 
L 208.170823 420.545455 
L 205.009033 420.545455 
L 201.922535 420.545455 
L 198.760746 420.545455 
L 195.598956 420.545455 
L 192.512445 420.545455 
L 189.350655 420.545455 
L 186.188878 420.545455 
L 183.102367 420.545455 
L 179.940577 420.545455 
L 176.854079 420.545455 
L 173.692289 420.545455 
L 170.530499 420.545455 
L 167.443988 420.545455 
L 164.282198 420.545455 
L 161.120421 420.545455 
L 158.03391 420.545455 
L 154.87212 420.545455 
L 151.71033 420.545455 
L 148.623832 420.545455 
L 145.462042 420.545455 
L 142.375532 420.545455 
L 139.213742 420.545455 
L 136.051958 420.545455 
L 132.965454 420.545455 
L 129.803664 420.545455 
L 126.64188 420.545455 
L 123.555369 420.545455 
L 120.393586 420.545455 
L 117.231796 420.545455 
L 114.145291 420.545455 
L 110.983501 420.545455 
L 107.821712 420.545455 
L 104.735207 420.545455 
L 101.573417 420.545455 
L 98.486913 420.545455 
L 95.325123 420.545455 
L 92.163339 420.545455 
L 89.076828 420.545455 
L 85.915045 420.545455 
L 82.753255 420.545455 
L 79.666747 420.545455 
L 76.504961 420.545455 
L 73.343171 420.545455 
L 70.256666 420.545455 
L 67.094876 420.545455 
L 64.008369 420.545455 
L 60.846582 420.545455 
L 57.684795 420.545455 
L 54.598288 420.545455 
L 51.436499 420.545455 
L 48.274711 420.545455 
L 45.188205 420.545455 
L 42.026417 420.545455 
L 38.864628 420.545455 
L 35.778121 420.545455 
L 32.616333 420.545455 
L 29.454545 420.545455 
z
" clip-path="url(#p7c67789f67)" style="fill: #f08080"/>
   </g>
   <g id="line2d_6">
    <path d="M 29.454545 479.269025 
L 32.616333 479.269025 
L 35.778121 479.269025 
L 38.864628 479.269025 
L 42.026417 479.269025 
L 45.188205 479.269025 
L 48.274711 479.269025 
L 51.436499 479.269025 
L 54.598288 479.269025 
L 57.684795 479.269025 
L 60.846582 479.269025 
L 64.008369 479.269025 
L 67.094876 479.269025 
L 70.256666 479.269025 
L 73.343171 479.269025 
L 76.504961 479.269025 
L 79.666747 479.269025 
L 82.753255 479.269025 
L 85.915045 479.269025 
L 89.076828 479.269025 
L 92.163339 479.269025 
L 95.325123 479.269025 
L 98.486913 479.269025 
L 101.573417 479.269025 
L 104.735207 479.269025 
L 107.821712 479.269025 
L 110.983501 479.269025 
L 114.145291 479.269025 
L 117.231796 479.269025 
L 120.393586 479.269025 
L 123.555369 479.269025 
L 126.64188 479.269025 
L 129.803664 479.269025 
L 132.965454 479.269025 
L 136.051958 479.269025 
L 139.213742 479.269025 
L 142.375532 479.269025 
L 145.462042 479.269025 
L 148.623832 479.269025 
L 151.71033 479.269025 
L 154.87212 479.269025 
L 158.03391 479.269025 
L 161.120421 479.269025 
L 164.282198 479.269025 
L 167.443988 479.269025 
L 170.530499 479.269025 
L 173.692289 479.269025 
L 176.854079 479.269025 
L 179.940577 479.269025 
L 183.102367 479.269025 
L 186.188878 479.269025 
L 189.350655 479.269025 
L 192.512445 479.269025 
L 195.598956 479.269025 
L 198.760746 479.269025 
L 201.922535 479.269025 
L 205.009033 479.269025 
L 208.170823 479.269025 
L 211.332613 479.269025 
L 214.419111 479.269025 
L 217.580901 479.269025 
L 220.667412 479.269025 
L 223.829202 479.269025 
L 226.990979 479.269025 
L 230.07749 479.269025 
L 233.23928 479.269025 
L 236.40107 479.269025 
L 239.487568 479.269025 
L 242.649358 479.269025 
L 245.811135 479.269025 
L 248.897659 479.269025 
L 252.059436 479.269025 
L 255.221239 479.269025 
L 258.307737 479.269025 
L 261.469514 479.269025 
L 264.556037 479.269025 
L 267.717815 479.269025 
L 270.879592 479.269025 
L 273.966115 479.269025 
L 277.127892 479.269025 
L 280.28967 479.269025 
L 283.376193 479.269025 
L 286.53797 479.269025 
L 289.699773 479.269025 
L 292.786271 479.269025 
L 295.948048 479.269025 
L 299.034572 479.269025 
L 302.196349 479.269025 
L 305.358126 479.269025 
L 308.44465 479.269025 
L 311.606427 479.269025 
L 314.768204 479.269025 
L 317.854728 479.269025 
L 321.016505 479.269025 
L 324.178308 479.269025 
L 327.264806 479.269025 
L 330.426583 479.269025 
L 333.588386 479.269025 
L 336.674884 479.269025 
L 339.836661 479.269025 
L 342.923184 479.269025 
L 346.084961 479.269025 
L 349.246739 479.269025 
L 352.333262 479.269025 
L 355.495039 479.269025 
L 358.656842 479.269025 
L 361.74334 479.269025 
L 364.905117 479.269025 
L 368.06692 479.269025 
L 371.153418 479.269025 
L 374.315195 479.269025 
L 377.401719 479.269025 
L 380.563496 479.269025 
L 383.725273 479.269025 
L 386.811797 479.269025 
L 389.973574 479.269025 
L 393.135377 479.269025 
L 396.221875 479.269025 
L 399.383652 479.269025 
L 402.545455 479.269025 
" clip-path="url(#p7c67789f67)" style="fill: none; stroke: #808080; stroke-linecap: round"/>
   </g>
  </g>
  <g id="axes_7">
   <g id="PolyCollection_13"/>
   <g id="PolyCollection_14">
    <path d="M 29.454545 554.929972 
L 29.454545 554.929972 
L 32.616333 554.929972 
L 35.778121 554.929972 
L 38.864628 554.929972 
L 42.026417 554.929972 
L 45.188205 554.929972 
L 48.274711 554.929972 
L 51.436499 554.929972 
L 54.598288 554.929972 
L 57.684795 554.929972 
L 60.846582 554.929972 
L 64.008369 554.929972 
L 67.094876 554.929972 
L 70.256666 554.929972 
L 73.343171 554.929972 
L 76.504961 554.929972 
L 79.666747 554.929972 
L 82.753255 554.929972 
L 85.915045 554.929972 
L 89.076828 554.929972 
L 92.163339 554.929972 
L 95.325123 554.929972 
L 98.486913 554.929972 
L 101.573417 554.929972 
L 104.735207 554.929972 
L 107.821712 554.929972 
L 110.983501 554.929972 
L 114.145291 554.929972 
L 117.231796 554.929972 
L 120.393586 554.929972 
L 123.555369 554.929972 
L 126.64188 554.929972 
L 129.803664 554.929972 
L 132.965454 554.929972 
L 136.051958 554.929972 
L 139.213742 554.929972 
L 142.375532 554.929972 
L 145.462042 554.929972 
L 148.623832 554.929972 
L 151.71033 554.929972 
L 154.87212 554.929972 
L 158.03391 554.929972 
L 161.120421 554.929972 
L 164.282198 554.929972 
L 167.443988 554.929972 
L 170.530499 554.929972 
L 173.692289 554.929972 
L 176.854079 554.929972 
L 179.940577 554.929972 
L 183.102367 554.929972 
L 186.188878 554.929972 
L 189.350655 554.929972 
L 192.512445 554.929972 
L 195.598956 554.929972 
L 198.760746 554.929972 
L 201.922535 554.929972 
L 205.009033 554.929972 
L 208.170823 554.929972 
L 211.332613 554.929972 
L 214.419111 554.929972 
L 217.580901 554.929972 
L 220.667412 554.929972 
L 223.829202 554.929972 
L 226.990979 554.929972 
L 230.07749 554.929972 
L 233.23928 554.929972 
L 236.40107 554.929972 
L 239.487568 554.929972 
L 242.649358 554.929972 
L 245.811135 554.929972 
L 248.897659 554.929972 
L 252.059436 554.929972 
L 255.221239 554.929972 
L 258.307737 554.929972 
L 261.469514 554.929972 
L 264.556037 554.929972 
L 267.717815 554.929972 
L 270.879592 554.929972 
L 273.966115 554.929972 
L 277.127892 554.929972 
L 280.28967 554.929972 
L 283.376193 554.929972 
L 286.53797 554.929972 
L 289.699773 554.929972 
L 292.786271 554.929972 
L 295.948048 554.929972 
L 299.034572 554.929972 
L 302.196349 554.929972 
L 305.358126 554.929972 
L 308.44465 554.929972 
L 311.606427 554.929972 
L 314.768204 554.929972 
L 317.854728 554.929972 
L 321.016505 554.929972 
L 324.178308 554.929972 
L 327.264806 554.929972 
L 330.426583 554.929972 
L 333.588386 554.929972 
L 336.674884 554.929972 
L 339.836661 554.929972 
L 342.923184 554.929972 
L 346.084961 554.929972 
L 349.246739 554.929972 
L 352.333262 554.929972 
L 355.495039 554.929972 
L 358.656842 554.929972 
L 361.74334 554.929972 
L 364.905117 554.929972 
L 368.06692 554.929972 
L 371.153418 554.929972 
L 374.315195 554.929972 
L 377.401719 554.929972 
L 380.563496 554.929972 
L 383.725273 554.929972 
L 386.811797 554.929972 
L 389.973574 554.929972 
L 393.135377 554.929972 
L 396.221875 554.929972 
L 399.383652 554.929972 
L 402.545455 554.929972 
L 402.545455 554.929972 
L 402.545455 496.145455 
L 399.383652 496.145455 
L 396.221875 496.145455 
L 393.135377 496.145455 
L 389.973574 496.145455 
L 386.811797 496.145455 
L 383.725273 496.145455 
L 380.563496 496.145455 
L 377.401719 496.145455 
L 374.315195 496.145455 
L 371.153418 496.145455 
L 368.06692 496.145455 
L 364.905117 496.145455 
L 361.74334 496.145455 
L 358.656842 496.145455 
L 355.495039 496.145455 
L 352.333262 496.145455 
L 349.246739 496.145455 
L 346.084961 496.145455 
L 342.923184 496.145455 
L 339.836661 496.145455 
L 336.674884 496.145455 
L 333.588386 496.145455 
L 330.426583 496.145455 
L 327.264806 496.145455 
L 324.178308 496.145455 
L 321.016505 496.145455 
L 317.854728 496.145455 
L 314.768204 496.145455 
L 311.606427 496.145455 
L 308.44465 496.145455 
L 305.358126 496.145455 
L 302.196349 496.145455 
L 299.034572 496.145455 
L 295.948048 496.145455 
L 292.786271 496.145455 
L 289.699773 496.145455 
L 286.53797 496.145455 
L 283.376193 496.145455 
L 280.28967 496.145455 
L 277.127892 496.145455 
L 273.966115 496.145455 
L 270.879592 496.145455 
L 267.717815 496.145455 
L 264.556037 496.145455 
L 261.469514 496.145455 
L 258.307737 496.145455 
L 255.221239 496.145455 
L 252.059436 496.145455 
L 248.897659 496.145455 
L 245.811135 496.145455 
L 242.649358 496.145455 
L 239.487568 496.145455 
L 236.40107 496.145455 
L 233.23928 496.145455 
L 230.07749 496.145455 
L 226.990979 496.145455 
L 223.829202 496.145455 
L 220.667412 496.145455 
L 217.580901 496.145455 
L 214.419111 496.145455 
L 211.332613 496.145455 
L 208.170823 496.145455 
L 205.009033 496.145455 
L 201.922535 496.145455 
L 198.760746 496.145455 
L 195.598956 496.145455 
L 192.512445 496.145455 
L 189.350655 496.145455 
L 186.188878 496.145455 
L 183.102367 496.145455 
L 179.940577 496.145455 
L 176.854079 496.145455 
L 173.692289 496.145455 
L 170.530499 496.145455 
L 167.443988 496.145455 
L 164.282198 496.145455 
L 161.120421 496.145455 
L 158.03391 496.145455 
L 154.87212 496.145455 
L 151.71033 496.145455 
L 148.623832 496.145455 
L 145.462042 496.145455 
L 142.375532 496.145455 
L 139.213742 496.145455 
L 136.051958 496.145455 
L 132.965454 496.145455 
L 129.803664 496.145455 
L 126.64188 496.145455 
L 123.555369 496.145455 
L 120.393586 496.145455 
L 117.231796 496.145455 
L 114.145291 496.145455 
L 110.983501 496.145455 
L 107.821712 496.145455 
L 104.735207 496.145455 
L 101.573417 496.145455 
L 98.486913 496.145455 
L 95.325123 496.145455 
L 92.163339 496.145455 
L 89.076828 496.145455 
L 85.915045 496.145455 
L 82.753255 496.145455 
L 79.666747 496.145455 
L 76.504961 496.145455 
L 73.343171 496.145455 
L 70.256666 496.145455 
L 67.094876 496.145455 
L 64.008369 496.145455 
L 60.846582 496.145455 
L 57.684795 496.145455 
L 54.598288 496.145455 
L 51.436499 496.145455 
L 48.274711 496.145455 
L 45.188205 496.145455 
L 42.026417 496.145455 
L 38.864628 496.145455 
L 35.778121 496.145455 
L 32.616333 496.145455 
L 29.454545 496.145455 
z
" clip-path="url(#p24bfed9f63)" style="fill: #f08080"/>
   </g>
   <g id="line2d_7">
    <path d="M 29.454545 554.929972 
L 32.616333 554.929972 
L 35.778121 554.929972 
L 38.864628 554.929972 
L 42.026417 554.929972 
L 45.188205 554.929972 
L 48.274711 554.929972 
L 51.436499 554.929972 
L 54.598288 554.929972 
L 57.684795 554.929972 
L 60.846582 554.929972 
L 64.008369 554.929972 
L 67.094876 554.929972 
L 70.256666 554.929972 
L 73.343171 554.929972 
L 76.504961 554.929972 
L 79.666747 554.929972 
L 82.753255 554.929972 
L 85.915045 554.929972 
L 89.076828 554.929972 
L 92.163339 554.929972 
L 95.325123 554.929972 
L 98.486913 554.929972 
L 101.573417 554.929972 
L 104.735207 554.929972 
L 107.821712 554.929972 
L 110.983501 554.929972 
L 114.145291 554.929972 
L 117.231796 554.929972 
L 120.393586 554.929972 
L 123.555369 554.929972 
L 126.64188 554.929972 
L 129.803664 554.929972 
L 132.965454 554.929972 
L 136.051958 554.929972 
L 139.213742 554.929972 
L 142.375532 554.929972 
L 145.462042 554.929972 
L 148.623832 554.929972 
L 151.71033 554.929972 
L 154.87212 554.929972 
L 158.03391 554.929972 
L 161.120421 554.929972 
L 164.282198 554.929972 
L 167.443988 554.929972 
L 170.530499 554.929972 
L 173.692289 554.929972 
L 176.854079 554.929972 
L 179.940577 554.929972 
L 183.102367 554.929972 
L 186.188878 554.929972 
L 189.350655 554.929972 
L 192.512445 554.929972 
L 195.598956 554.929972 
L 198.760746 554.929972 
L 201.922535 554.929972 
L 205.009033 554.929972 
L 208.170823 554.929972 
L 211.332613 554.929972 
L 214.419111 554.929972 
L 217.580901 554.929972 
L 220.667412 554.929972 
L 223.829202 554.929972 
L 226.990979 554.929972 
L 230.07749 554.929972 
L 233.23928 554.929972 
L 236.40107 554.929972 
L 239.487568 554.929972 
L 242.649358 554.929972 
L 245.811135 554.929972 
L 248.897659 554.929972 
L 252.059436 554.929972 
L 255.221239 554.929972 
L 258.307737 554.929972 
L 261.469514 554.929972 
L 264.556037 554.929972 
L 267.717815 554.929972 
L 270.879592 554.929972 
L 273.966115 554.929972 
L 277.127892 554.929972 
L 280.28967 554.929972 
L 283.376193 554.929972 
L 286.53797 554.929972 
L 289.699773 554.929972 
L 292.786271 554.929972 
L 295.948048 554.929972 
L 299.034572 554.929972 
L 302.196349 554.929972 
L 305.358126 554.929972 
L 308.44465 554.929972 
L 311.606427 554.929972 
L 314.768204 554.929972 
L 317.854728 554.929972 
L 321.016505 554.929972 
L 324.178308 554.929972 
L 327.264806 554.929972 
L 330.426583 554.929972 
L 333.588386 554.929972 
L 336.674884 554.929972 
L 339.836661 554.929972 
L 342.923184 554.929972 
L 346.084961 554.929972 
L 349.246739 554.929972 
L 352.333262 554.929972 
L 355.495039 554.929972 
L 358.656842 554.929972 
L 361.74334 554.929972 
L 364.905117 554.929972 
L 368.06692 554.929972 
L 371.153418 554.929972 
L 374.315195 554.929972 
L 377.401719 554.929972 
L 380.563496 554.929972 
L 383.725273 554.929972 
L 386.811797 554.929972 
L 389.973574 554.929972 
L 393.135377 554.929972 
L 396.221875 554.929972 
L 399.383652 554.929972 
L 402.545455 554.929972 
" clip-path="url(#p24bfed9f63)" style="fill: none; stroke: #808080; stroke-linecap: round"/>
   </g>
  </g>
  <g id="axes_8">
   <g id="PolyCollection_15"/>
   <g id="PolyCollection_16">
    <path d="M 29.454545 630.604474 
L 29.454545 630.604474 
L 32.616333 630.604474 
L 35.778121 630.604474 
L 38.864628 630.604474 
L 42.026417 630.604474 
L 45.188205 630.604474 
L 48.274711 630.604474 
L 51.436499 630.604474 
L 54.598288 630.604474 
L 57.684795 630.604474 
L 60.846582 630.604474 
L 64.008369 630.604474 
L 67.094876 630.604474 
L 70.256666 630.604474 
L 73.343171 630.604474 
L 76.504961 630.604474 
L 79.666747 630.604474 
L 82.753255 630.604474 
L 85.915045 630.604474 
L 89.076828 630.604474 
L 92.163339 630.604474 
L 95.325123 630.604474 
L 98.486913 630.604474 
L 101.573417 630.604474 
L 104.735207 630.604474 
L 107.821712 630.604474 
L 110.983501 630.604474 
L 114.145291 630.604474 
L 117.231796 630.604474 
L 120.393586 630.604474 
L 123.555369 630.604474 
L 126.64188 630.604474 
L 129.803664 630.604474 
L 132.965454 630.604474 
L 136.051958 630.604474 
L 139.213742 630.604474 
L 142.375532 630.604474 
L 145.462042 630.604474 
L 148.623832 630.604474 
L 151.71033 630.604474 
L 154.87212 630.604474 
L 158.03391 630.604474 
L 161.120421 630.604474 
L 164.282198 630.604474 
L 167.443988 630.604474 
L 170.530499 630.604474 
L 173.692289 630.604474 
L 176.854079 630.604474 
L 179.940577 630.604474 
L 183.102367 630.604474 
L 186.188878 630.604474 
L 189.350655 630.604474 
L 192.512445 630.604474 
L 195.598956 630.604474 
L 198.760746 630.604474 
L 201.922535 630.604474 
L 205.009033 630.604474 
L 208.170823 630.604474 
L 211.332613 630.604474 
L 214.419111 630.604474 
L 217.580901 630.604474 
L 220.667412 630.604474 
L 223.829202 630.604474 
L 226.990979 630.604474 
L 230.07749 630.604474 
L 233.23928 630.604474 
L 236.40107 630.604474 
L 239.487568 630.604474 
L 242.649358 630.604474 
L 245.811135 630.604474 
L 248.897659 630.604474 
L 252.059436 630.604474 
L 255.221239 630.604474 
L 258.307737 630.604474 
L 261.469514 630.604474 
L 264.556037 630.604474 
L 267.717815 630.604474 
L 270.879592 630.604474 
L 273.966115 630.604474 
L 277.127892 630.604474 
L 280.28967 630.604474 
L 283.376193 630.604474 
L 286.53797 630.604474 
L 289.699773 630.604474 
L 292.786271 630.604474 
L 295.948048 630.604474 
L 299.034572 630.604474 
L 302.196349 630.604474 
L 305.358126 630.604474 
L 308.44465 630.604474 
L 311.606427 630.604474 
L 314.768204 630.604474 
L 317.854728 630.604474 
L 321.016505 630.604474 
L 324.178308 630.604474 
L 327.264806 630.604474 
L 330.426583 630.604474 
L 333.588386 630.604474 
L 336.674884 630.604474 
L 339.836661 630.604474 
L 342.923184 630.604474 
L 346.084961 630.604474 
L 349.246739 630.604474 
L 352.333262 630.604474 
L 355.495039 630.604474 
L 358.656842 630.604474 
L 361.74334 630.604474 
L 364.905117 630.604474 
L 368.06692 630.604474 
L 371.153418 630.604474 
L 374.315195 630.604474 
L 377.401719 630.604474 
L 380.563496 630.604474 
L 383.725273 630.604474 
L 386.811797 630.604474 
L 389.973574 630.604474 
L 393.135377 630.604474 
L 396.221875 630.604474 
L 399.383652 630.604474 
L 402.545455 630.604474 
L 402.545455 630.604474 
L 402.545455 571.745455 
L 399.383652 571.745455 
L 396.221875 571.745455 
L 393.135377 571.745455 
L 389.973574 571.745455 
L 386.811797 571.745455 
L 383.725273 571.745455 
L 380.563496 571.745455 
L 377.401719 571.745455 
L 374.315195 571.745455 
L 371.153418 571.745455 
L 368.06692 571.745455 
L 364.905117 571.745455 
L 361.74334 571.745455 
L 358.656842 571.745455 
L 355.495039 571.745455 
L 352.333262 571.745455 
L 349.246739 571.745455 
L 346.084961 571.745455 
L 342.923184 571.745455 
L 339.836661 571.745455 
L 336.674884 571.745455 
L 333.588386 571.745455 
L 330.426583 571.745455 
L 327.264806 571.745455 
L 324.178308 571.745455 
L 321.016505 571.745455 
L 317.854728 571.745455 
L 314.768204 571.745455 
L 311.606427 571.745455 
L 308.44465 571.745455 
L 305.358126 571.745455 
L 302.196349 571.745455 
L 299.034572 571.745455 
L 295.948048 571.745455 
L 292.786271 571.745455 
L 289.699773 571.745455 
L 286.53797 571.745455 
L 283.376193 571.745455 
L 280.28967 571.745455 
L 277.127892 571.745455 
L 273.966115 571.745455 
L 270.879592 571.745455 
L 267.717815 571.745455 
L 264.556037 571.745455 
L 261.469514 571.745455 
L 258.307737 571.745455 
L 255.221239 571.745455 
L 252.059436 571.745455 
L 248.897659 571.745455 
L 245.811135 571.745455 
L 242.649358 571.745455 
L 239.487568 571.745455 
L 236.40107 571.745455 
L 233.23928 571.745455 
L 230.07749 571.745455 
L 226.990979 571.745455 
L 223.829202 571.745455 
L 220.667412 571.745455 
L 217.580901 571.745455 
L 214.419111 571.745455 
L 211.332613 571.745455 
L 208.170823 571.745455 
L 205.009033 571.745455 
L 201.922535 571.745455 
L 198.760746 571.745455 
L 195.598956 571.745455 
L 192.512445 571.745455 
L 189.350655 571.745455 
L 186.188878 571.745455 
L 183.102367 571.745455 
L 179.940577 571.745455 
L 176.854079 571.745455 
L 173.692289 571.745455 
L 170.530499 571.745455 
L 167.443988 571.745455 
L 164.282198 571.745455 
L 161.120421 571.745455 
L 158.03391 571.745455 
L 154.87212 571.745455 
L 151.71033 571.745455 
L 148.623832 571.745455 
L 145.462042 571.745455 
L 142.375532 571.745455 
L 139.213742 571.745455 
L 136.051958 571.745455 
L 132.965454 571.745455 
L 129.803664 571.745455 
L 126.64188 571.745455 
L 123.555369 571.745455 
L 120.393586 571.745455 
L 117.231796 571.745455 
L 114.145291 571.745455 
L 110.983501 571.745455 
L 107.821712 571.745455 
L 104.735207 571.745455 
L 101.573417 571.745455 
L 98.486913 571.745455 
L 95.325123 571.745455 
L 92.163339 571.745455 
L 89.076828 571.745455 
L 85.915045 571.745455 
L 82.753255 571.745455 
L 79.666747 571.745455 
L 76.504961 571.745455 
L 73.343171 571.745455 
L 70.256666 571.745455 
L 67.094876 571.745455 
L 64.008369 571.745455 
L 60.846582 571.745455 
L 57.684795 571.745455 
L 54.598288 571.745455 
L 51.436499 571.745455 
L 48.274711 571.745455 
L 45.188205 571.745455 
L 42.026417 571.745455 
L 38.864628 571.745455 
L 35.778121 571.745455 
L 32.616333 571.745455 
L 29.454545 571.745455 
z
" clip-path="url(#p12b87cca0e)" style="fill: #f08080"/>
   </g>
   <g id="line2d_8">
    <path d="M 29.454545 630.604474 
L 32.616333 630.604474 
L 35.778121 630.604474 
L 38.864628 630.604474 
L 42.026417 630.604474 
L 45.188205 630.604474 
L 48.274711 630.604474 
L 51.436499 630.604474 
L 54.598288 630.604474 
L 57.684795 630.604474 
L 60.846582 630.604474 
L 64.008369 630.604474 
L 67.094876 630.604474 
L 70.256666 630.604474 
L 73.343171 630.604474 
L 76.504961 630.604474 
L 79.666747 630.604474 
L 82.753255 630.604474 
L 85.915045 630.604474 
L 89.076828 630.604474 
L 92.163339 630.604474 
L 95.325123 630.604474 
L 98.486913 630.604474 
L 101.573417 630.604474 
L 104.735207 630.604474 
L 107.821712 630.604474 
L 110.983501 630.604474 
L 114.145291 630.604474 
L 117.231796 630.604474 
L 120.393586 630.604474 
L 123.555369 630.604474 
L 126.64188 630.604474 
L 129.803664 630.604474 
L 132.965454 630.604474 
L 136.051958 630.604474 
L 139.213742 630.604474 
L 142.375532 630.604474 
L 145.462042 630.604474 
L 148.623832 630.604474 
L 151.71033 630.604474 
L 154.87212 630.604474 
L 158.03391 630.604474 
L 161.120421 630.604474 
L 164.282198 630.604474 
L 167.443988 630.604474 
L 170.530499 630.604474 
L 173.692289 630.604474 
L 176.854079 630.604474 
L 179.940577 630.604474 
L 183.102367 630.604474 
L 186.188878 630.604474 
L 189.350655 630.604474 
L 192.512445 630.604474 
L 195.598956 630.604474 
L 198.760746 630.604474 
L 201.922535 630.604474 
L 205.009033 630.604474 
L 208.170823 630.604474 
L 211.332613 630.604474 
L 214.419111 630.604474 
L 217.580901 630.604474 
L 220.667412 630.604474 
L 223.829202 630.604474 
L 226.990979 630.604474 
L 230.07749 630.604474 
L 233.23928 630.604474 
L 236.40107 630.604474 
L 239.487568 630.604474 
L 242.649358 630.604474 
L 245.811135 630.604474 
L 248.897659 630.604474 
L 252.059436 630.604474 
L 255.221239 630.604474 
L 258.307737 630.604474 
L 261.469514 630.604474 
L 264.556037 630.604474 
L 267.717815 630.604474 
L 270.879592 630.604474 
L 273.966115 630.604474 
L 277.127892 630.604474 
L 280.28967 630.604474 
L 283.376193 630.604474 
L 286.53797 630.604474 
L 289.699773 630.604474 
L 292.786271 630.604474 
L 295.948048 630.604474 
L 299.034572 630.604474 
L 302.196349 630.604474 
L 305.358126 630.604474 
L 308.44465 630.604474 
L 311.606427 630.604474 
L 314.768204 630.604474 
L 317.854728 630.604474 
L 321.016505 630.604474 
L 324.178308 630.604474 
L 327.264806 630.604474 
L 330.426583 630.604474 
L 333.588386 630.604474 
L 336.674884 630.604474 
L 339.836661 630.604474 
L 342.923184 630.604474 
L 346.084961 630.604474 
L 349.246739 630.604474 
L 352.333262 630.604474 
L 355.495039 630.604474 
L 358.656842 630.604474 
L 361.74334 630.604474 
L 364.905117 630.604474 
L 368.06692 630.604474 
L 371.153418 630.604474 
L 374.315195 630.604474 
L 377.401719 630.604474 
L 380.563496 630.604474 
L 383.725273 630.604474 
L 386.811797 630.604474 
L 389.973574 630.604474 
L 393.135377 630.604474 
L 396.221875 630.604474 
L 399.383652 630.604474 
L 402.545455 630.604474 
" clip-path="url(#p12b87cca0e)" style="fill: none; stroke: #808080; stroke-linecap: round"/>
   </g>
  </g>
  <g id="axes_9">
   <g id="PolyCollection_17"/>
   <g id="PolyCollection_18">
    <path d="M 29.454545 706.218248 
L 29.454545 706.218248 
L 32.616333 706.218248 
L 35.778121 706.218248 
L 38.864628 706.218248 
L 42.026417 706.218248 
L 45.188205 706.218248 
L 48.274711 706.218248 
L 51.436499 706.218248 
L 54.598288 706.218248 
L 57.684795 706.218248 
L 60.846582 706.218248 
L 64.008369 706.218248 
L 67.094876 706.218248 
L 70.256666 706.218248 
L 73.343171 706.218248 
L 76.504961 706.218248 
L 79.666747 706.218248 
L 82.753255 706.218248 
L 85.915045 706.218248 
L 89.076828 706.218248 
L 92.163339 706.218248 
L 95.325123 706.218248 
L 98.486913 706.218248 
L 101.573417 706.218248 
L 104.735207 706.218248 
L 107.821712 706.218248 
L 110.983501 706.218248 
L 114.145291 706.218248 
L 117.231796 706.218248 
L 120.393586 706.218248 
L 123.555369 706.218248 
L 126.64188 706.218248 
L 129.803664 706.218248 
L 132.965454 706.218248 
L 136.051958 706.218248 
L 139.213742 706.218248 
L 142.375532 706.218248 
L 145.462042 706.218248 
L 148.623832 706.218248 
L 151.71033 706.218248 
L 154.87212 706.218248 
L 158.03391 706.218248 
L 161.120421 706.218248 
L 164.282198 706.218248 
L 167.443988 706.218248 
L 170.530499 706.218248 
L 173.692289 706.218248 
L 176.854079 706.218248 
L 179.940577 706.218248 
L 183.102367 706.218248 
L 186.188878 706.218248 
L 189.350655 706.218248 
L 192.512445 706.218248 
L 195.598956 706.218248 
L 198.760746 706.218248 
L 201.922535 706.218248 
L 205.009033 706.218248 
L 208.170823 706.218248 
L 211.332613 706.218248 
L 214.419111 706.218248 
L 217.580901 706.218248 
L 220.667412 706.218248 
L 223.829202 706.218248 
L 226.990979 706.218248 
L 230.07749 706.218248 
L 233.23928 706.218248 
L 236.40107 706.218248 
L 239.487568 706.218248 
L 242.649358 706.218248 
L 245.811135 706.218248 
L 248.897659 706.218248 
L 252.059436 706.218248 
L 255.221239 706.218248 
L 258.307737 706.218248 
L 261.469514 706.218248 
L 264.556037 706.218248 
L 267.717815 706.218248 
L 270.879592 706.218248 
L 273.966115 706.218248 
L 277.127892 706.218248 
L 280.28967 706.218248 
L 283.376193 706.218248 
L 286.53797 706.218248 
L 289.699773 706.218248 
L 292.786271 706.218248 
L 295.948048 706.218248 
L 299.034572 706.218248 
L 302.196349 706.218248 
L 305.358126 706.218248 
L 308.44465 706.218248 
L 311.606427 706.218248 
L 314.768204 706.218248 
L 317.854728 706.218248 
L 321.016505 706.218248 
L 324.178308 706.218248 
L 327.264806 706.218248 
L 330.426583 706.218248 
L 333.588386 706.218248 
L 336.674884 706.218248 
L 339.836661 706.218248 
L 342.923184 706.218248 
L 346.084961 706.218248 
L 349.246739 706.218248 
L 352.333262 706.218248 
L 355.495039 706.218248 
L 358.656842 706.218248 
L 361.74334 706.218248 
L 364.905117 706.218248 
L 368.06692 706.218248 
L 371.153418 706.218248 
L 374.315195 706.218248 
L 377.401719 706.218248 
L 380.563496 706.218248 
L 383.725273 706.218248 
L 386.811797 706.218248 
L 389.973574 706.218248 
L 393.135377 706.218248 
L 396.221875 706.218248 
L 399.383652 706.218248 
L 402.545455 706.218248 
L 402.545455 706.218248 
L 402.545455 647.345455 
L 399.383652 647.345455 
L 396.221875 647.345455 
L 393.135377 647.345455 
L 389.973574 647.345455 
L 386.811797 647.345455 
L 383.725273 647.345455 
L 380.563496 647.345455 
L 377.401719 647.345455 
L 374.315195 647.345455 
L 371.153418 647.345455 
L 368.06692 647.345455 
L 364.905117 647.345455 
L 361.74334 647.345455 
L 358.656842 647.345455 
L 355.495039 647.345455 
L 352.333262 647.345455 
L 349.246739 647.345455 
L 346.084961 647.345455 
L 342.923184 647.345455 
L 339.836661 647.345455 
L 336.674884 647.345455 
L 333.588386 647.345455 
L 330.426583 647.345455 
L 327.264806 647.345455 
L 324.178308 647.345455 
L 321.016505 647.345455 
L 317.854728 647.345455 
L 314.768204 647.345455 
L 311.606427 647.345455 
L 308.44465 647.345455 
L 305.358126 647.345455 
L 302.196349 647.345455 
L 299.034572 647.345455 
L 295.948048 647.345455 
L 292.786271 647.345455 
L 289.699773 647.345455 
L 286.53797 647.345455 
L 283.376193 647.345455 
L 280.28967 647.345455 
L 277.127892 647.345455 
L 273.966115 647.345455 
L 270.879592 647.345455 
L 267.717815 647.345455 
L 264.556037 647.345455 
L 261.469514 647.345455 
L 258.307737 647.345455 
L 255.221239 647.345455 
L 252.059436 647.345455 
L 248.897659 647.345455 
L 245.811135 647.345455 
L 242.649358 647.345455 
L 239.487568 647.345455 
L 236.40107 647.345455 
L 233.23928 647.345455 
L 230.07749 647.345455 
L 226.990979 647.345455 
L 223.829202 647.345455 
L 220.667412 647.345455 
L 217.580901 647.345455 
L 214.419111 647.345455 
L 211.332613 647.345455 
L 208.170823 647.345455 
L 205.009033 647.345455 
L 201.922535 647.345455 
L 198.760746 647.345455 
L 195.598956 647.345455 
L 192.512445 647.345455 
L 189.350655 647.345455 
L 186.188878 647.345455 
L 183.102367 647.345455 
L 179.940577 647.345455 
L 176.854079 647.345455 
L 173.692289 647.345455 
L 170.530499 647.345455 
L 167.443988 647.345455 
L 164.282198 647.345455 
L 161.120421 647.345455 
L 158.03391 647.345455 
L 154.87212 647.345455 
L 151.71033 647.345455 
L 148.623832 647.345455 
L 145.462042 647.345455 
L 142.375532 647.345455 
L 139.213742 647.345455 
L 136.051958 647.345455 
L 132.965454 647.345455 
L 129.803664 647.345455 
L 126.64188 647.345455 
L 123.555369 647.345455 
L 120.393586 647.345455 
L 117.231796 647.345455 
L 114.145291 647.345455 
L 110.983501 647.345455 
L 107.821712 647.345455 
L 104.735207 647.345455 
L 101.573417 647.345455 
L 98.486913 647.345455 
L 95.325123 647.345455 
L 92.163339 647.345455 
L 89.076828 647.345455 
L 85.915045 647.345455 
L 82.753255 647.345455 
L 79.666747 647.345455 
L 76.504961 647.345455 
L 73.343171 647.345455 
L 70.256666 647.345455 
L 67.094876 647.345455 
L 64.008369 647.345455 
L 60.846582 647.345455 
L 57.684795 647.345455 
L 54.598288 647.345455 
L 51.436499 647.345455 
L 48.274711 647.345455 
L 45.188205 647.345455 
L 42.026417 647.345455 
L 38.864628 647.345455 
L 35.778121 647.345455 
L 32.616333 647.345455 
L 29.454545 647.345455 
z
" clip-path="url(#p25a2602238)" style="fill: #f08080"/>
   </g>
   <g id="line2d_9">
    <path d="M 29.454545 706.218248 
L 32.616333 706.218248 
L 35.778121 706.218248 
L 38.864628 706.218248 
L 42.026417 706.218248 
L 45.188205 706.218248 
L 48.274711 706.218248 
L 51.436499 706.218248 
L 54.598288 706.218248 
L 57.684795 706.218248 
L 60.846582 706.218248 
L 64.008369 706.218248 
L 67.094876 706.218248 
L 70.256666 706.218248 
L 73.343171 706.218248 
L 76.504961 706.218248 
L 79.666747 706.218248 
L 82.753255 706.218248 
L 85.915045 706.218248 
L 89.076828 706.218248 
L 92.163339 706.218248 
L 95.325123 706.218248 
L 98.486913 706.218248 
L 101.573417 706.218248 
L 104.735207 706.218248 
L 107.821712 706.218248 
L 110.983501 706.218248 
L 114.145291 706.218248 
L 117.231796 706.218248 
L 120.393586 706.218248 
L 123.555369 706.218248 
L 126.64188 706.218248 
L 129.803664 706.218248 
L 132.965454 706.218248 
L 136.051958 706.218248 
L 139.213742 706.218248 
L 142.375532 706.218248 
L 145.462042 706.218248 
L 148.623832 706.218248 
L 151.71033 706.218248 
L 154.87212 706.218248 
L 158.03391 706.218248 
L 161.120421 706.218248 
L 164.282198 706.218248 
L 167.443988 706.218248 
L 170.530499 706.218248 
L 173.692289 706.218248 
L 176.854079 706.218248 
L 179.940577 706.218248 
L 183.102367 706.218248 
L 186.188878 706.218248 
L 189.350655 706.218248 
L 192.512445 706.218248 
L 195.598956 706.218248 
L 198.760746 706.218248 
L 201.922535 706.218248 
L 205.009033 706.218248 
L 208.170823 706.218248 
L 211.332613 706.218248 
L 214.419111 706.218248 
L 217.580901 706.218248 
L 220.667412 706.218248 
L 223.829202 706.218248 
L 226.990979 706.218248 
L 230.07749 706.218248 
L 233.23928 706.218248 
L 236.40107 706.218248 
L 239.487568 706.218248 
L 242.649358 706.218248 
L 245.811135 706.218248 
L 248.897659 706.218248 
L 252.059436 706.218248 
L 255.221239 706.218248 
L 258.307737 706.218248 
L 261.469514 706.218248 
L 264.556037 706.218248 
L 267.717815 706.218248 
L 270.879592 706.218248 
L 273.966115 706.218248 
L 277.127892 706.218248 
L 280.28967 706.218248 
L 283.376193 706.218248 
L 286.53797 706.218248 
L 289.699773 706.218248 
L 292.786271 706.218248 
L 295.948048 706.218248 
L 299.034572 706.218248 
L 302.196349 706.218248 
L 305.358126 706.218248 
L 308.44465 706.218248 
L 311.606427 706.218248 
L 314.768204 706.218248 
L 317.854728 706.218248 
L 321.016505 706.218248 
L 324.178308 706.218248 
L 327.264806 706.218248 
L 330.426583 706.218248 
L 333.588386 706.218248 
L 336.674884 706.218248 
L 339.836661 706.218248 
L 342.923184 706.218248 
L 346.084961 706.218248 
L 349.246739 706.218248 
L 352.333262 706.218248 
L 355.495039 706.218248 
L 358.656842 706.218248 
L 361.74334 706.218248 
L 364.905117 706.218248 
L 368.06692 706.218248 
L 371.153418 706.218248 
L 374.315195 706.218248 
L 377.401719 706.218248 
L 380.563496 706.218248 
L 383.725273 706.218248 
L 386.811797 706.218248 
L 389.973574 706.218248 
L 393.135377 706.218248 
L 396.221875 706.218248 
L 399.383652 706.218248 
L 402.545455 706.218248 
" clip-path="url(#p25a2602238)" style="fill: none; stroke: #808080; stroke-linecap: round"/>
   </g>
  </g>
 </g>
 <defs>
  <clipPath id="p6c4417f35d">
   <rect x="10.8" y="39.6" width="410.4" height="64.8"/>
  </clipPath>
  <clipPath id="pd2b6bf49c7">
   <rect x="10.8" y="115.2" width="410.4" height="64.8"/>
  </clipPath>
  <clipPath id="p23ca4f3f69">
   <rect x="10.8" y="190.8" width="410.4" height="64.8"/>
  </clipPath>
  <clipPath id="p33a0b4a6ac">
   <rect x="10.8" y="266.4" width="410.4" height="64.8"/>
  </clipPath>
  <clipPath id="pd54c3d5fa0">
   <rect x="10.8" y="342" width="410.4" height="64.8"/>
  </clipPath>
  <clipPath id="p7c67789f67">
   <rect x="10.8" y="417.6" width="410.4" height="64.8"/>
  </clipPath>
  <clipPath id="p24bfed9f63">
   <rect x="10.8" y="493.2" width="410.4" height="64.8"/>
  </clipPath>
  <clipPath id="p12b87cca0e">
   <rect x="10.8" y="568.8" width="410.4" height="64.8"/>
  </clipPath>
  <clipPath id="p25a2602238">
   <rect x="10.8" y="644.4" width="410.4" height="64.8"/>
  </clipPath>
 </defs>
</svg>
